<?xml version="1.0" encoding="utf-8"?>
<!-- Generator: Adobe Illustrator 24.0.2, SVG Export Plug-In . SVG Version: 6.00 Build 0)  -->
<svg version="1.1" id="Layer_1" xmlns="http://www.w3.org/2000/svg" xmlns:xlink="http://www.w3.org/1999/xlink" x="0px" y="0px"
	 viewBox="0 0 44 44" style="enable-background:new 0 0 44 44;" xml:space="preserve">
<style type="text/css">
	.st0{fill:#FFFFFF;}
	.st1{fill:#F59666;}
</style>
<g id="AI_ICON" transform="translate(-1181 -2302)">
	<circle id="Ellipse_111" class="st0" cx="1203" cy="2324" r="22"/>
	<g id="ai" transform="translate(1185 2307.614)">
		<path id="Path_325" class="st1" d="M34.6,12.7c-1.3-1.3-3-2-4.8-2c-0.2,0-0.4,0-0.5,0C29,4.9,24.2,0.4,18.4,0.4
			c-2.4,0-4.7,0.8-6.6,2.3C10,4,8.7,5.8,8,7.9c-4.6,0.8-8,4.8-8,9.5v0c0,0,0,0,0,0c0,4.3,3.5,7.7,7.8,7.7h1.1v4.4
			c0,0.4,0.3,0.6,0.6,0.6c0,0,0,0,0,0h2.7v3.1c0,0.2,0.1,0.5,0.3,0.6c0.1,0,0.2,0.1,0.3,0.1c0.1,0,0.3,0,0.4-0.1l5.1-3.7h8.8
			c0.4,0,0.6-0.3,0.6-0.6c0,0,0,0,0,0v-4.4h1.1c4.3,0,7.8-3.5,7.8-7.7c0-0.1,0-0.1,0-0.2C36.6,15.6,35.8,13.9,34.6,12.7L34.6,12.7z
			 M26.4,29h-8.4c-0.1,0-0.3,0-0.4,0.1l-4.2,3.1v-2.5c0-0.4-0.3-0.6-0.7-0.6h-2.6V17.2h16.3L26.4,29z M28.8,23.9h-1.1v-7.3
			c0-0.4-0.3-0.6-0.6-0.7H9.5c-0.4,0-0.6,0.3-0.6,0.7v7.3H7.8c-3.6,0-6.4-2.9-6.5-6.4c0,0,0,0,0,0c0,0,0,0,0-0.1l0,0
			c0-4.2,3.1-7.7,7.3-8.2c0.3,0,0.5-0.2,0.5-0.5C10.6,3.6,15.9,0.6,21,2c4.1,1.2,7,5,7,9.3c0,0,0,0.1,0,0.1c0,0.4,0.3,0.7,0.6,0.7
			c0,0,0.1,0,0.1,0c3-0.6,5.8,1.4,6.4,4.4c0.1,0.3,0.1,0.7,0.1,1c0,0,0,0.1,0,0.1C35.2,21.1,32.4,23.9,28.8,23.9L28.8,23.9z"/>
		<path id="Path_326" class="st1" d="M14.9,26.8c0.2,0,0.4-0.1,0.4-0.2l0.4-1.3h2.2l0.4,1.3c0,0.2,0.2,0.2,0.4,0.2
			c0.3,0,0.8-0.2,0.8-0.5c0,0,0-0.1,0-0.1l-1.9-6.1c-0.1-0.3-0.4-0.4-0.8-0.4c-0.3,0-0.7,0.1-0.8,0.4l-1.9,6.1c0,0,0,0.1,0,0.1
			C14.1,26.6,14.5,26.8,14.9,26.8z M16.8,21.3l0.8,3h-1.7L16.8,21.3z"/>
		<path id="Path_327" class="st1" d="M21.7,26.8c0.3,0,0.6-0.1,0.6-0.4v-6.3c0-0.3-0.3-0.4-0.6-0.4s-0.6,0.1-0.6,0.4v6.3
			C21.1,26.6,21.4,26.8,21.7,26.8z"/>
	</g>
</g>
</svg>
