<?xml version="1.0" encoding="utf-8"?>
<!-- Generator: Adobe Illustrator 24.0.2, SVG Export Plug-In . SVG Version: 6.00 Build 0)  -->
<svg version="1.1" id="Layer_1" xmlns="http://www.w3.org/2000/svg" xmlns:xlink="http://www.w3.org/1999/xlink" x="0px" y="0px"
	 viewBox="0 0 2000 1015.8" style="enable-background:new 0 0 2000 1015.8;" xml:space="preserve">
<style type="text/css">
	.st0{fill:#01CDCE;}
	.st1{fill:#676767;}
	.st2{fill:#F47A7A;}
</style>
<g>
	<path class="st0" d="M5.6,684.1c2.9-22.9,3.8-46.3,9-68.7c25.1-108.2,85.3-188.7,190.8-228.9c77.4-29.5,155-26.5,230.1,10.8
		c21.4,10.6,40.4,24.8,56.6,42.4c1.2,1.3,2.4,2.5,3.7,3.6c0.3,0.3,1,0.3,2.3,0.6c0-18.3,0-36.5,0-55.4c72.1,0,143.3,0,215.2,0
		c0,140.5,0,281.2,0,423c-3.1,0-6.2,0-9.2,0c-44.6,0.2-89.2,0.5-133.7,0.4c-5.7,0-9.4,1.8-12.9,6.3c-42.4,55.5-84.8,110.8-127.6,166
		c-3.5,4.5-8.5,8.6-13.7,10.8c-77,31.9-154,28.3-228.6-6.1C95.4,946.4,40.7,871.6,16.3,774.1c-5.4-21.8-6.6-44.6-9.7-66.9
		c-0.4-3.1-0.7-6.2-1-9.3C5.6,693.2,5.6,688.7,5.6,684.1z M505.3,692.9c0.3-24.3-4.9-47.2-16.1-68.7c-42-80.8-149.2-84.4-204.8-44.7
		c-37.5,26.8-54.3,64.8-55.3,109.8c-1,39.9,10.4,75.9,40.4,103.8c42.2,39.4,117.6,47.6,169.8,18.5
		C485.6,785.9,504,744.1,505.3,692.9z"/>
	<path class="st0" d="M1334.9,0c18.5,4.5,37.3,8.1,55.4,13.8c17.7,5.6,17.4,6.6,17.4,25.2c0,52.4,0,104.8,0,157.2
		c0,3.4,0,6.7,0,10.5c-15.6-5.3-29.9-10.8-44.6-15c-19-5.4-38.4-6.1-57.6-0.9c-21.5,5.8-35,20.4-40.7,41.4c-3.8,14-6.4,28.6-6.8,43
		c-1,35.5-0.3,71-0.3,106.5c0,1.6,0.3,3.3,0.5,5.7c36,0,71.6,0,110,0c-5.6,5.7-9.3,9.7-13.2,13.5
		c-59.8,58.3-119.7,116.5-179.5,174.8c-37.9,36.9-75.9,73.8-113.5,111c-6.1,6-12.2,6.3-20.3,3.9c0-41.1,0-82.5,0-124.8
		c-18.7,0-36.5,0-54.8,0c0-59.6,0-118.1,0-177.8c18,0,35.8,0,54.7,0c0-4.1,0-7.2,0-10.2c0.5-40.6,1.1-81.3,1.4-122
		c0.9-128.5,95.6-211.3,175.8-238.5c22.2-7.5,46-10.7,69-15.8c2.5-0.6,5-1,7.5-1.5C1308.6,0,1321.7,0,1334.9,0z"/>
	<path class="st1" d="M1996.5,995c-71.5,0-142.2,0-213.8,0c0-22.2,0-43.8,0-67c-2.5,1.9-4,2.5-4.8,3.7c-30.8,45-75,68.7-127,78.7
		c-141.9,27.4-279.5-49.4-334.6-186.4c-33.4-83-34.6-167.1-5.5-251.6c1.3-3.7,3.2-7.4,5.9-10.2c55.3-56.8,110.7-113.4,166.2-170
		c2.7-2.8,6-5.6,9.6-6.8c78.8-26.7,156-24.5,230.8,14.3c20.2,10.5,38,24.3,53.4,41.1c1.3,1.4,2.8,2.6,5.7,5.1c0-20,0-38.3,0-57.2
		c71.9,0,142.6,0,214.1,0C1996.5,590.6,1996.5,792.3,1996.5,995z M1512.6,699.1c0.3,29.7,10.5,62.4,35.7,89.7
		c43.7,47.3,127.3,50.2,177.2,22c53.1-30,72-91.5,61.4-146.7c-11.9-61.6-52.3-99.8-115.8-107.8
		C1578.7,544.6,1512.8,605.9,1512.6,699.1z"/>
	<path class="st0" d="M953.5,685.7c-25.1-1.7-49.6-3.1-74.1-5.1c-6.5-0.5-11,1.2-15.8,5.8c-36.2,35.4-72.6,70.5-109,105.7
		c-1,1-2.1,1.8-3.9,3.4c0-261.4,0-521.7,0-782.8c67.2,0,134.7,0,202.8,0C953.5,236.7,953.5,460.7,953.5,685.7z"/>
	<path class="st1" d="M1042.3,995c0-67.3,0-134.2,0-201.9c10,0.8,19.6,1.2,29.2,2.4c6.2,0.8,10.6-0.7,15.1-5.3
		c47.5-48,95.1-95.8,142.8-143.6c8.6-8.7,17.6-17,27.4-26.5c0,125.8,0,250,0,374.9C1185.3,995,1114,995,1042.3,995z"/>
	<path class="st1" d="M953.5,786.1c0,70,0,139,0,208.6c-67.6,0-134.8,0-202.7,0c0-27.6,0-55.2,0-80.8c6.8-4.8,13.1-8.2,18.2-13
		c40.5-38.3,80.7-77,121.1-115.4c2-1.9,5.4-3.5,8.1-3.3C916.4,783.3,934.6,784.8,953.5,786.1z"/>
	<path class="st2" d="M1448.7,200c76.5-26.8,151.5-53,228.6-80c-25.3,77.3-50.1,153.1-75.6,231c-7.1-20.7-13.4-39.4-19.8-58.1
		c-5.7-16.8-11.1-33.6-17.3-50.3c-1.2-3.1-4.6-6.5-7.7-7.6c-33.3-11-66.7-21.6-100.2-32.3C1454.7,202.2,1452.6,201.4,1448.7,200z"/>
	<path class="st1" d="M530.7,994.6c20.3-27.7,39.6-54.2,59.2-80.6c1.3-1.7,4.2-3.2,6.3-3.2c38.2-0.1,76.5,0,114.7,0.1
		c0.5,0,1,0.4,2.1,0.7c0,27.4,0,55,0,83C652.7,994.6,592.3,994.6,530.7,994.6z"/>
</g>
</svg>
