<svg xmlns="http://www.w3.org/2000/svg" viewBox="0 0 80.02 82.91"><defs><style>.cls-1{fill:#3eb2e3;}</style></defs><g id="Layer_2" data-name="Layer 2"><g id="Layer_1-2" data-name="Layer 1"><g id="Group_1396" data-name="Group 1396"><g id="megaphone"><path id="Path_392" data-name="Path 392" class="cls-1" d="M34.73,12a1.91,1.91,0,0,0-2.7,2.7l2.26,2.26L8.4,57,.56,64.79a1.9,1.9,0,0,0,0,2.7L15.38,82.33A1.86,1.86,0,0,0,18,82.4l.08-.07,7.85-7.88,6.15-4L40.64,79a1.92,1.92,0,0,0,2.7,0l15.4-15.4a1.92,1.92,0,0,0,0-2.7l-4.67-4.67L66,48.58l2.25,2.24a1.91,1.91,0,0,0,2.7-2.7Zm-18,66.3L4.61,66.14,10,60.79,22.07,72.9Zm38-16L42,75l-6.62-6.63,15.42-10Zm-4.57-8L31.41,66.35,25,70.47,12.39,57.81,37.05,19.68,63.19,45.82Z"/><path id="Path_393" data-name="Path 393" class="cls-1" d="M56.3,24A1.92,1.92,0,0,0,59,24L70.33,12.73a1.91,1.91,0,1,0-2.56-2.84l-.14.14L56.31,21.34A1.91,1.91,0,0,0,56.3,24Z"/><path id="Path_394" data-name="Path 394" class="cls-1" d="M49.88,17.14A1.9,1.9,0,0,0,52.33,16h0l5-13.44a1.91,1.91,0,0,0-3.59-1.32L48.74,14.69a1.91,1.91,0,0,0,1.14,2.45Z"/><path id="Path_395" data-name="Path 395" class="cls-1" d="M77.45,22.74,64,27.69a1.91,1.91,0,0,0,1.32,3.59l13.43-5a1.91,1.91,0,0,0-1.32-3.59Z"/></g></g></g></g></svg>