<svg xmlns="http://www.w3.org/2000/svg" viewBox="0 0 106 106"><defs><style>.cls-1{fill:#3eb2e3;}.cls-2{fill:#fff;}</style></defs><g id="Layer_2" data-name="Layer 2"><g id="Layer_1-2" data-name="Layer 1"><g id="Group_1408" data-name="Group 1408"><g id="Group_1395" data-name="Group 1395"><circle id="Ellipse_145-2" data-name="Ellipse 145-2" class="cls-1" cx="53" cy="53" r="53"/><g id="megaphone-2"><path id="Path_392-2" data-name="Path 392-2" class="cls-2" d="M50.68,24.21a1.57,1.57,0,0,0-2.22,2.22h0l1.85,1.85L29,61.18l-6.44,6.45a1.58,1.58,0,0,0,0,2.22h0l12.18,12.2a1.52,1.52,0,0,0,2.16.07l.06-.07,6.46-6.47,5-3.27,7,7a1.56,1.56,0,0,0,2.22,0L70.41,66.69a1.58,1.58,0,0,0,0-2.22h0l-3.84-3.84,9.77-6.31,1.84,1.84a1.57,1.57,0,1,0,2.22-2.23ZM35.88,78.7l-10-10,4.4-4.4,10,10Zm31.2-13.13L56.64,76,51.2,70.56l12.67-8.19ZM63.32,59,48,68.92,42.72,72.3,32.32,61.9,52.59,30.55,74.07,52Z"/><path id="Path_393-2" data-name="Path 393-2" class="cls-2" d="M68.41,34.14a1.56,1.56,0,0,0,2.22,0h0l9.3-9.29a1.58,1.58,0,0,0,0-2.22,1.56,1.56,0,0,0-2.22,0l-9.3,9.29a1.57,1.57,0,0,0,0,2.22Z"/><path id="Path_394-2" data-name="Path 394-2" class="cls-2" d="M63.12,28.47a1.57,1.57,0,0,0,2-.92h0l4.06-11a1.57,1.57,0,0,0-2.93-1.13v.05l-4.07,11a1.57,1.57,0,0,0,.93,2Z"/><path id="Path_395-2" data-name="Path 395-2" class="cls-2" d="M85.78,33.08l-11,4.07a1.57,1.57,0,0,0-.9,2,1.55,1.55,0,0,0,2,.91l11-4.06a1.57,1.57,0,0,0-1-3Z"/></g></g></g></g></g></svg>