<?xml version="1.0" encoding="utf-8"?>
<!-- Generator: Adobe Illustrator 24.0.2, SVG Export Plug-In . SVG Version: 6.00 Build 0)  -->
<svg version="1.1" id="Layer_1" xmlns="http://www.w3.org/2000/svg" xmlns:xlink="http://www.w3.org/1999/xlink" x="0px" y="0px"
	 viewBox="0 0 106 106" style="enable-background:new 0 0 106 106;" xml:space="preserve">
<style type="text/css">
	.st0{fill:#F59666;}
	.st1{fill:#FFFFFF;}
	.st2{font-family:'Stencil';}
	.st3{font-size:50px;}
	.st4{font-size:35px;}
	.st5{fill:none;}
</style>
<g id="asq" transform="translate(-193 -120)">
	<g transform="matrix(1, 0, 0, 1, 193, 120)">
		<circle id="Ellipse_107-2" class="st0" cx="53" cy="53" r="53"/>
	</g>
	<text transform="matrix(1 0 0 1 210 197.71)" class="st1 st2 st3">A</text>
	<text transform="matrix(1 0 0 1 240.957 197.71)" class="st1 st2 st4">SQ</text>
	<g id="Group_1254" transform="translate(4527.78 -3419)">
		<g id="Group_1253" transform="translate(-4276 3565)">
			<g id="Group_1252" transform="translate(0 0)">
				<path id="Path_358" class="st1" d="M19.8,14.5L19.8,14.5l-2.4,0v5.1H9.1c-0.1,0-0.3,0-0.4,0.1l-4.2,3.1v-2.5
					c0-0.4-0.3-0.6-0.7-0.6H1.2v-5.1h-2.4c-3.6,0-6.4-2.9-6.5-6.4c0,0,0,0,0,0c0,0,0,0,0-0.1c0-4.2,3.1-7.7,7.3-8.2
					c0.3,0,0.5-0.2,0.5-0.5C1.6-5.8,6.9-8.8,12-7.3c4.1,1.2,7,5,7,9.3V2c0,0.4,0.3,0.7,0.6,0.7h0c0,0,0.1,0,0.1,0
					c3-0.6,5.8,1.4,6.4,4.4c0.1,0.3,0.1,0.7,0.1,1c0,0,0,0.1,0,0.1C26.2,11.7,23.4,14.5,19.8,14.5z"/>
				<path id="Path_359" class="st5" d="M26.2,7c-0.6-3-3.4-4.9-6.4-4.4c0,0,0,0,0,0c0,0-0.1,0-0.1,0C19.3,2.7,19,2.4,19,2v0V1.9
					c0-5.3-4.3-9.6-9.6-9.6c-4.3,0-8.1,2.9-9.3,7C0.1-0.5-0.1-0.3-0.4-0.3c-4.2,0.5-7.3,4-7.3,8.2c0,0,0,0,0,0.1c0,0,0,0,0,0
					c0,3.6,2.9,6.4,6.5,6.4h1.1L-2.9,5l24.8-0.3L19,14.5h0.9v0c3.5,0,6.4-2.8,6.5-6.3c0,0,0-0.1,0-0.1C26.3,7.7,26.3,7.4,26.2,7z"/>
				<path id="Path_360" class="st1" d="M27.6,7.9c0-1.7-0.7-3.4-2-4.6l0,0c-1.3-1.3-3-2-4.8-2c-0.2,0-0.4,0-0.5,0
					C20-4.5,15.2-9,9.4-9C7-9,4.7-8.2,2.8-6.8C1-5.4-0.3-3.6-1-1.5C-5.6-0.7-9,3.3-9,8v0.1c0,4.3,3.5,7.7,7.8,7.7h1.1v4.4
					c0,0.4,0.3,0.6,0.6,0.6h2.7V24c0,0.4,0.3,0.6,0.6,0.6c0,0,0,0,0,0c0.1,0,0.3,0,0.4-0.1l5.1-3.7h8.8c0.4,0,0.6-0.3,0.6-0.6l0,0
					v-4.4h1.1c4.3,0,7.8-3.5,7.8-7.7C27.6,8,27.6,8,27.6,7.9z"/>
				<path id="Path_326" class="st0" d="M5.9,17.4c0.2,0,0.4-0.1,0.4-0.2l0.4-1.3h2.2l0.4,1.3c0,0.2,0.2,0.2,0.4,0.2
					c0.3,0,0.8-0.2,0.8-0.5c0,0,0-0.1,0-0.1l-1.9-6.1c-0.1-0.3-0.4-0.4-0.8-0.4c-0.3,0-0.7,0.1-0.8,0.4l-1.9,6.1c0,0,0,0.1,0,0.1
					C5.1,17.2,5.5,17.4,5.9,17.4z M7.8,12l0.8,3H6.9L7.8,12z"/>
				<path id="Path_361" class="st0" d="M18.1,6.5H0.5c-0.4,0-0.6,0.3-0.6,0.7v7.3h1.3V7.8h16.3v8h1.3V7.2
					C18.7,6.8,18.4,6.5,18.1,6.5z"/>
				<path id="Path_362" class="st0" d="M0.5,6.5h17.5c0.4,0,0.6,0.3,0.6,0.7v7.3h-1.3V7.8H1.2v8h-1.3V7.2C-0.1,6.8,0.2,6.5,0.5,6.5z
					"/>
			</g>
			<path id="Path_327" class="st0" d="M12.7,17.4c0.3,0,0.6-0.1,0.6-0.4v-6.3c0-0.3-0.3-0.4-0.6-0.4s-0.6,0.1-0.6,0.4V17
				C12.1,17.3,12.4,17.4,12.7,17.4z"/>
		</g>
	</g>
</g>
</svg>
