<svg xmlns="http://www.w3.org/2000/svg" viewBox="0 0 106 106"><defs><style>.cls-1{fill:#11e6e6;}.cls-2{fill:none;stroke:#fff;stroke-linecap:round;stroke-linejoin:round;stroke-width:3px;}</style></defs><g id="Layer_2" data-name="Layer 2"><g id="Layer_1-2" data-name="Layer 1"><g id="Group_1476" data-name="Group 1476"><circle id="Ellipse_146-2" data-name="Ellipse 146-2" class="cls-1" cx="53" cy="53" r="53"/><path id="Icon_feather-phone-call" data-name="Icon feather-phone-call" class="cls-2" d="M58.69,39.22a10.89,10.89,0,0,1,8.61,8.61M58.69,30.5A19.62,19.62,0,0,1,76,47.8M73.84,65.19v6.54a4.36,4.36,0,0,1-4.34,4.38l-.41,0A43.14,43.14,0,0,1,50.28,69.4,42.48,42.48,0,0,1,37.21,56.32a43,43,0,0,1-6.69-18.89,4.35,4.35,0,0,1,3.95-4.73l.38,0h6.54a4.36,4.36,0,0,1,4.36,3.75,28.7,28.7,0,0,0,1.52,6.12,4.35,4.35,0,0,1-1,4.6l-2.76,2.77A34.89,34.89,0,0,0,56.6,63l2.77-2.77a4.37,4.37,0,0,1,4.6-1,28.14,28.14,0,0,0,6.12,1.53,4.36,4.36,0,0,1,3.75,4.42Z"/></g></g></g></svg>