<svg xmlns="http://www.w3.org/2000/svg" viewBox="0 0 99.62 99.8"><defs><style>.cls-1{fill:none;stroke:#11e6e6;stroke-linecap:round;stroke-linejoin:round;stroke-width:5px;}</style></defs><g id="Layer_2" data-name="Layer 2"><g id="Layer_1-2" data-name="Layer 1"><path id="Icon_feather-phone-call" data-name="Icon feather-phone-call" class="cls-1" d="M61.11,20.62A22.63,22.63,0,0,1,79,38.51M61.11,2.5a40.77,40.77,0,0,1,36,36M92.59,74.61V88.2a9.06,9.06,0,0,1-9,9.1c-.29,0-.57,0-.86,0A89.76,89.76,0,0,1,43.62,83.35,88.27,88.27,0,0,1,16.45,56.18,89.55,89.55,0,0,1,2.54,16.9a9.05,9.05,0,0,1,8.21-9.83,7.32,7.32,0,0,1,.81,0H25.14a9.06,9.06,0,0,1,9.06,7.79,58.73,58.73,0,0,0,3.17,12.73,9.07,9.07,0,0,1-2,9.56l-5.76,5.75A72.51,72.51,0,0,0,56.76,70l5.75-5.76a9.07,9.07,0,0,1,9.56-2A58.73,58.73,0,0,0,84.8,65.42a9,9,0,0,1,7.79,9.19Z"/></g></g></svg>