<svg xmlns="http://www.w3.org/2000/svg" viewBox="0 0 60.3 60.31"><defs><style>.cls-1{fill:#67b8fc;}</style></defs><g id="Layer_2" data-name="Layer 2"><g id="Layer_1-2" data-name="Layer 1"><g id="contract"><g id="Group_404" data-name="Group 404"><path id="Path_39" data-name="Path 39" class="cls-1" d="M58.75,19a5.31,5.31,0,0,0-7.5,0L45.94,24.3v-14a5.31,5.31,0,0,0-1.55-3.75l-5-5A5.28,5.28,0,0,0,35.64,0H5.3A5.3,5.3,0,0,0,0,5.3V55a5.3,5.3,0,0,0,5.3,5.3H40.64a5.31,5.31,0,0,0,5.3-5.3V39.3L58.75,26.48a5.31,5.31,0,0,0,0-7.5ZM35.34,3.53a2,2,0,0,1,1.55.52l5,5a1.91,1.91,0,0,1,.52,1.55H35.34ZM42.41,55a1.78,1.78,0,0,1-1.77,1.77H5.3A1.77,1.77,0,0,1,3.53,55V5.3A1.77,1.77,0,0,1,5.3,3.53H31.8v8.84a1.77,1.77,0,0,0,1.77,1.77H42.4v13.7l-5.21,5.21-2.5,2.5a1.78,1.78,0,0,0-.43.69l-2.5,7.5A1.77,1.77,0,0,0,32.88,46,1.79,1.79,0,0,0,34,46l7.5-2.5a1.78,1.78,0,0,0,.69-.43l.21-.21V55Zm-4-18.21,2.5,2.5-.95,1L36.24,41.5l1.25-3.75Zm5,0-2.5-2.5,8.5-8.5,2.5,2.5ZM56.25,24,54.43,25.8l-2.5-2.5,1.82-1.82a1.77,1.77,0,0,1,2.5,2.5Z"/></g><g id="Group_406" data-name="Group 406"><path id="Path_40" data-name="Path 40" class="cls-1" d="M33.57,17.67H8.83a1.77,1.77,0,1,0,0,3.53H33.57a1.77,1.77,0,1,0,0-3.53Z"/></g><g id="Group_408" data-name="Group 408"><path id="Path_41" data-name="Path 41" class="cls-1" d="M26.5,24.74H8.83a1.77,1.77,0,1,0,0,3.53H26.5a1.77,1.77,0,0,0,0-3.53Z"/></g><g id="Group_410" data-name="Group 410"><path id="Path_42" data-name="Path 42" class="cls-1" d="M26.5,31.81H8.83a1.77,1.77,0,1,0,0,3.53H26.5a1.77,1.77,0,0,0,0-3.53Z"/></g><g id="Group_412" data-name="Group 412"><path id="Path_43" data-name="Path 43" class="cls-1" d="M26.5,38.87H8.83a1.77,1.77,0,0,0,0,3.54H26.5a1.77,1.77,0,0,0,0-3.54Z"/></g><g id="Group_414" data-name="Group 414"><path id="Path_44" data-name="Path 44" class="cls-1" d="M33.57,49.71H23a1.77,1.77,0,0,0,0,3.53h10.6a1.77,1.77,0,0,0,0-3.53Z"/></g></g></g></g></svg>