<?xml version="1.0" encoding="utf-8"?>
<!-- Generator: Adobe Illustrator 24.0.2, SVG Export Plug-In . SVG Version: 6.00 Build 0)  -->
<svg version="1.1" id="Layer_1" xmlns="http://www.w3.org/2000/svg" xmlns:xlink="http://www.w3.org/1999/xlink" x="0px" y="0px"
	 viewBox="0 0 152 152" style="enable-background:new 0 0 152 152;" xml:space="preserve">
<style type="text/css">
	.st0{filter:url(#Rectangle_937);}
	.st1{fill:#EC935F;}
	.st2{fill:#FFFFFF;}
</style>
<filter  filterUnits="userSpaceOnUse" height="152" id="Rectangle_937" width="152" x="0" y="0">
	<feOffset  input="SourceAlpha"></feOffset>
	<feGaussianBlur  result="blur" stdDeviation="3"></feGaussianBlur>
	<feFlood  flood-opacity="0.302"></feFlood>
	<feComposite  in2="blur" operator="in"></feComposite>
	<feComposite  in="SourceGraphic" operator="over"></feComposite>
</filter>
<g id="Group_803" transform="translate(-154 -297)">
	<g transform="matrix(1, 0, 0, 1, 154, 297)" class="st0">
		<path id="Rectangle_937-2_1_" class="st1" d="M19,9h114c5.5,0,10,4.5,10,10v114c0,5.5-4.5,10-10,10H19c-5.5,0-10-4.5-10-10V19
			C9,13.5,13.5,9,19,9z"/>
	</g>
	<g id="Page-1" transform="translate(199 342)">
		<g id="_022---Cookie" transform="translate(0 0)">
			<path id="Shape" class="st2" d="M57.9,15.8c-1.1-1.7-2.4-3.1-3.9-4.4c-0.5-0.5-1.1-1-1.6-1.5c-0.5-0.5-0.9-1-1.4-1.5
				c-1.3-1.5-2.8-2.9-4.5-4c-2.3-1.4-4.8-2.6-7.4-3.4C36.5,0.4,33.8,0,31.1,0c-1.9,0.1-3.8,0.5-5.6,1.2c-0.8,0.3-1.5,0.5-2.2,0.7
				c-0.6,0.2-1.3,0.3-1.9,0.5c-2,0.4-3.9,1-5.7,2c-1.8,1.1-3.4,2.5-4.7,4.1C10.4,8.9,10,9.3,9.6,9.8c-0.5,0.5-1,1-1.6,1.5
				C6.5,12.5,5.1,14,4,15.7c-0.9,1.7-1.5,3.6-1.8,5.5c-0.2,0.7-0.3,1.5-0.5,2.2c-0.2,0.6-0.4,1.3-0.6,1.9c-0.7,1.9-1.1,3.9-1.2,6
				c0,2.7,0.4,5.4,1.1,8c0.6,2,1.5,3.9,2.7,5.6c0.3,0.5,0.6,1,0.9,1.5l0.4,0.8c1.1,2.1,2.5,4.1,4.1,5.8c1.8,1.6,3.8,3,5.9,4.1
				l0.7,0.4c4.5,2.9,9.8,4.4,15.2,4.4c2.7,0,5.3-0.4,7.9-1.1c0.6-0.2,1.2-0.3,1.8-0.4c2.1-0.4,4.1-1.1,5.9-2c1.6-1,3-2.3,4.1-3.8
				c0.6-0.7,1.1-1.3,1.7-1.8c0.5-0.5,1.1-1,1.7-1.6c1.5-1.2,2.8-2.7,3.9-4.3c1-1.9,1.7-4,2.1-6.1c0.1-0.5,0.3-1.1,0.4-1.6
				c0.8-2.6,1.3-5.2,1.4-7.9c-0.1-2.7-0.5-5.4-1.3-7.9C60.1,20.7,59.1,18.1,57.9,15.8L57.9,15.8z M58.6,38.6
				c-0.1,0.5-0.3,1.1-0.4,1.6c-0.4,1.9-1,3.8-1.9,5.5c-0.9,1.4-2.1,2.7-3.5,3.8c-0.6,0.5-1.2,1.1-1.8,1.6c-0.6,0.6-1.2,1.3-1.8,2
				c-1,1.3-2.2,2.5-3.6,3.4c-1.7,0.9-3.5,1.5-5.4,1.8c-0.6,0.1-1.2,0.3-1.9,0.5c-2.4,0.7-4.9,1-7.4,1c-2.5,0-5-0.4-7.4-1.1
				C21.3,58,19,57,16.9,55.7l-0.7-0.4c-2-1-3.8-2.3-5.5-3.8C9.3,49.9,8,48.1,7,46.1l-0.4-0.8c-0.3-0.5-0.6-1.1-1-1.6
				c-1.1-1.6-1.9-3.3-2.5-5.1c-0.7-2.4-1-4.9-1.1-7.5c0.1-1.8,0.5-3.6,1.1-5.4c0.2-0.7,0.4-1.3,0.6-2c0.2-0.8,0.4-1.5,0.5-2.3
				c0.3-1.7,0.8-3.4,1.6-4.9c1-1.5,2.2-2.8,3.5-3.9c0.6-0.5,1.1-1,1.6-1.5c0.4-0.4,0.9-0.9,1.3-1.3c1.2-1.4,2.7-2.7,4.3-3.7
				c1.6-0.8,3.4-1.4,5.2-1.7c0.7-0.2,1.3-0.3,2-0.5c0.8-0.2,1.6-0.5,2.4-0.8c1.6-0.6,3.2-1,4.9-1.1c2.5,0,5.1,0.4,7.5,1.1
				c2.4,0.8,4.7,1.8,6.9,3.2c1.5,1,2.9,2.2,4,3.6c0.5,0.5,0.9,1,1.4,1.5c0.5,0.5,1.1,1,1.6,1.5c1.4,1.1,2.5,2.4,3.5,3.9
				c1.2,2.2,2.1,4.6,2.6,7c0.7,2.4,1.1,4.9,1.2,7.4C59.8,33.7,59.3,36.2,58.6,38.6L58.6,38.6z"/>
			<path id="Shape-2" class="st2" d="M12.4,28.9c0.6,0,1-0.5,1-1.1c0-0.5-0.5-1-1-1c-1.4,0-4.1,1.1-4.1,5.2c0,0.6,0.4,1,1,1.1
				c0.6,0,1-0.4,1.1-1c0,0,0,0,0-0.1C10.3,29.1,12.1,28.9,12.4,28.9z"/>
			<path id="Shape-3" class="st2" d="M47.8,35.1c-0.5-0.2-1.1,0.1-1.3,0.7c-0.2,0.5,0.1,1.1,0.7,1.3c0,0,0.1,0,0.1,0
				c0.1,0,3.2,0.8,2.3,5c-0.1,0.6,0.2,1.1,0.8,1.2c0.1,0,0.1,0,0.2,0c0.5,0,0.9-0.3,1-0.8C52.6,37.7,49.5,35.6,47.8,35.1z"/>
			<path id="Shape-4" class="st2" d="M26.8,50.6c-1,0.1-2-0.2-2.8-0.9c-0.4-0.6-0.5-1.3-0.4-1.9c0.1-0.6-0.2-1.1-0.8-1.2
				c-0.5-0.1-1.1,0.2-1.2,0.7c-0.3,1.3,0,2.6,0.7,3.7c1.1,1.2,2.7,1.9,4.4,1.7c0.6,0,1-0.5,1-1.1C27.8,51.1,27.4,50.6,26.8,50.6
				L26.8,50.6z"/>
			<path id="Shape-5" class="st2" d="M39.8,14.3c1.1-0.8,2.8-0.6,3.6,0.5c0,0.1,0.1,0.1,0.1,0.2c0.3,0.5,1,0.6,1.4,0.2
				c0.4-0.3,0.6-0.9,0.3-1.4c-1.4-2.2-4.2-2.8-6.4-1.5c-0.1,0-0.2,0.1-0.2,0.2c-0.5,0.3-0.6,1-0.2,1.4
				C38.7,14.5,39.3,14.6,39.8,14.3L39.8,14.3z"/>
			<path id="Shape-6" class="st2" d="M33.1,39.2c1.5-0.4,2.8-1.3,3.6-2.5c0.5-0.9,0.6-2,0.2-2.9c-0.2-0.5-0.8-0.8-1.3-0.6
				c-0.5,0.2-0.8,0.8-0.6,1.3c0.2,0.4,0.2,0.9-0.1,1.3c-0.6,0.8-1.4,1.3-2.3,1.5c-0.6,0.1-0.9,0.7-0.7,1.3c0.1,0.5,0.5,0.8,1,0.8
				C33,39.2,33,39.2,33.1,39.2L33.1,39.2z"/>
			<path id="Shape-7" class="st2" d="M15.5,21.7c0.1,0,0.2,0,0.3,0c0.6-0.1,0.9-0.7,0.8-1.3c-0.5-1.6,0.4-3.3,2.1-3.8
				c0.1,0,0.2-0.1,0.3-0.1c0.5-0.2,0.8-0.8,0.7-1.3c-0.2-0.5-0.7-0.8-1.2-0.7c-2.8,0.6-4.5,3.3-3.9,6c0,0.1,0.1,0.3,0.1,0.4
				C14.6,21.4,15,21.7,15.5,21.7L15.5,21.7z"/>
			<path id="Shape-8" class="st2" d="M52.2,21.8c-1.1-2-3.5-2.8-5.6-1.8l-1.8,1c-2,1.1-2.8,3.5-1.8,5.6l1,1.8c1,2,3.5,2.8,5.6,1.8
				c0,0,0,0,0,0l1.8-1c2-1.1,2.8-3.5,1.8-5.6L52.2,21.8z M51.5,26.1c-0.2,0.5-0.5,1-1,1.2l-1.8,0.9c-1,0.5-2.3,0.1-2.8-0.9
				c0,0,0,0,0,0l-0.9-1.8c-0.5-1-0.1-2.3,0.9-2.8c0,0,0,0,0,0l1.8-0.9c0.3-0.2,0.6-0.2,0.9-0.2c0.2,0,0.4,0,0.6,0.1
				c0.5,0.2,1,0.5,1.2,1l0.9,1.8C51.6,25.1,51.7,25.6,51.5,26.1z"/>
			<path id="Shape-9" class="st2" d="M40.6,44.9l-1.9-0.7c-2.1-0.8-4.5,0.3-5.3,2.5l-0.7,1.9c-0.8,2.1,0.3,4.5,2.4,5.3l1.9,0.7
				c2.1,0.8,4.5-0.3,5.3-2.4l0.7-1.9C43.8,48.1,42.7,45.7,40.6,44.9L40.6,44.9z M41.1,49.5l-0.7,1.9c-0.4,1.1-1.6,1.6-2.7,1.2
				c0,0,0,0,0,0L35.8,52c-1.1-0.4-1.6-1.6-1.2-2.7c0,0,0,0,0,0l0.7-1.9c0.4-1.1,1.6-1.6,2.6-1.2c0,0,0,0,0,0l1.9,0.7
				C40.9,47.3,41.5,48.5,41.1,49.5L41.1,49.5z"/>
			<path id="Shape-10" class="st2" d="M20.9,38.2c-0.3-2.3-2.3-3.9-4.6-3.6c0,0,0,0,0,0l-2.1,0.2c-2.3,0.3-3.9,2.3-3.6,4.6l0.2,2.1
				c0.2,2.1,2,3.7,4.1,3.7c0.2,0,0.3,0,0.5,0l2.1-0.2c2.3-0.3,3.9-2.3,3.6-4.6L20.9,38.2z M17.3,42.7L15.2,43
				c-1.1,0.1-2.2-0.7-2.3-1.8c0,0,0,0,0,0l-0.2-2.1c-0.1-1.1,0.7-2.2,1.8-2.3l2.1-0.2c0.1,0,0.2,0,0.2,0c1.1,0,1.9,0.8,2.1,1.8
				l0.2,2.1C19.2,41.6,18.4,42.6,17.3,42.7C17.3,42.7,17.3,42.7,17.3,42.7z"/>
			<path id="Shape-11" class="st2" d="M27.4,16.3l2,0.5c2.2,0.6,4.5-0.7,5-2.9c0,0,0,0,0,0l0.5-2c0.6-2.2-0.7-4.5-2.9-5.1
				c0,0,0,0,0,0l-2-0.5c-2.2-0.6-4.5,0.7-5,2.9c0,0,0,0,0,0l-0.5,2C23.9,13.5,25.2,15.7,27.4,16.3z M26.5,11.8l0.5-2
				c0.3-1.1,1.4-1.8,2.5-1.5c0,0,0,0,0,0l2,0.5c1.1,0.3,1.8,1.4,1.5,2.5l-0.5,2c-0.3,1.1-1.4,1.8-2.5,1.5l-2-0.5
				C26.8,14,26.2,12.9,26.5,11.8C26.5,11.8,26.5,11.8,26.5,11.8z"/>
			<path id="Shape-12" class="st2" d="M32.3,26.2l-0.8-1.9c-0.9-2.1-3.3-3.1-5.4-2.3l-1.9,0.8c-2.1,0.8-3.1,3.3-2.3,5.4l0.8,1.9
				c0.8,2.1,3.3,3.1,5.4,2.3l1.9-0.8C32.2,30.7,33.2,28.3,32.3,26.2L32.3,26.2z M30.4,28.5c-0.2,0.5-0.6,0.9-1.1,1.1l-1.9,0.8
				c-1.1,0.4-2.3-0.1-2.7-1.1l-0.8-1.9c-0.4-1.1,0.1-2.3,1.1-2.7l1.9-0.8c1.1-0.4,2.3,0.1,2.7,1.1l0.8,1.9
				C30.6,27.5,30.6,28,30.4,28.5L30.4,28.5z"/>
		</g>
	</g>
</g>
</svg>
