<?xml version="1.0" encoding="utf-8"?>
<!-- Generator: Adobe Illustrator 24.0.2, SVG Export Plug-In . SVG Version: 6.00 Build 0)  -->
<svg version="1.1" id="Layer_1" xmlns="http://www.w3.org/2000/svg" xmlns:xlink="http://www.w3.org/1999/xlink" x="0px" y="0px"
	 viewBox="0 0 106.2 106" style="enable-background:new 0 0 106.2 106;" xml:space="preserve">
<style type="text/css">
	.st0{fill:#F59666;}
	.st1{fill:#FFFFFF;}
	.st2{font-family:'Stencil';}
	.st3{font-size:50px;}
	.st4{font-size:35px;}
	.st5{fill:none;}
</style>
<circle id="Ellipse_107-2" class="st0" cx="53" cy="53" r="53"/>
<text transform="matrix(1 0 0 1 30 77.71)" class="st1 st2 st3">D</text>
<text transform="matrix(1 0 0 1 62.4219 77.71)" class="st1 st2 st4">I</text>
<g id="Group_1253" transform="translate(-4276 3565)">
	<g id="Group_1252" transform="translate(0 0)">
		<path id="Path_358" class="st1" d="M4354.6-3524.5L4354.6-3524.5l-2.4,0v5.1h-8.4c-0.1,0-0.3,0-0.4,0.1l-4.2,3.1v-2.5
			c0-0.4-0.3-0.6-0.7-0.6h-2.6v-5.1h-2.4c-3.6,0-6.4-2.9-6.5-6.4c0,0,0,0,0,0c0,0,0,0,0-0.1c0-4.2,3.1-7.7,7.3-8.2
			c0.3,0,0.5-0.2,0.5-0.5c1.4-5.1,6.8-8.1,11.9-6.6c4.1,1.2,7,5,7,9.3v0.1c0,0.4,0.3,0.7,0.6,0.7h0c0,0,0.1,0,0.1,0
			c3-0.6,5.8,1.4,6.4,4.4c0.1,0.3,0.1,0.7,0.1,1c0,0,0,0.1,0,0.1C4361-3527.3,4358.1-3524.5,4354.6-3524.5z"/>
		<path id="Path_359" class="st5" d="M4361-3532c-0.6-3-3.4-4.9-6.4-4.4c0,0,0,0,0,0c0,0-0.1,0-0.1,0c-0.4,0-0.6-0.3-0.6-0.7v0v-0.1
			c0-5.3-4.3-9.6-9.6-9.6c-4.3,0-8.1,2.9-9.3,7c-0.1,0.3-0.3,0.4-0.5,0.5c-4.2,0.5-7.3,4-7.3,8.2c0,0,0,0,0,0.1c0,0,0,0,0,0
			c0,3.6,2.9,6.4,6.5,6.4h1.1l-2.8-9.6l24.8-0.3l-2.9,9.9h0.9v0c3.5,0,6.4-2.8,6.5-6.3c0,0,0-0.1,0-0.1
			C4361.1-3531.3,4361-3531.6,4361-3532z"/>
		<path id="Path_360" class="st1" d="M4362.4-3531.1c0-1.7-0.7-3.4-2-4.6l0,0c-1.3-1.3-3-2-4.8-2c-0.2,0-0.4,0-0.5,0
			c-0.3-5.8-5.1-10.3-10.9-10.3c-2.4,0-4.7,0.8-6.6,2.3c-1.7,1.3-3,3.2-3.7,5.3c-4.6,0.8-8,4.8-8,9.5v0.1c0,4.3,3.5,7.7,7.8,7.7h1.1
			v4.4c0,0.4,0.3,0.6,0.6,0.6h2.7v3.1c0,0.4,0.3,0.6,0.6,0.6c0,0,0,0,0,0c0.1,0,0.3,0,0.4-0.1l5.1-3.7h8.8c0.4,0,0.6-0.3,0.6-0.6
			l0,0v-4.4h1.1c4.3,0,7.8-3.5,7.8-7.7C4362.4-3531,4362.4-3531,4362.4-3531.1z"/>
		<path id="Path_326" class="st0" d="M4340.7-3521.6c0.2,0,0.4-0.1,0.4-0.2l0.4-1.3h2.2l0.4,1.3c0,0.2,0.2,0.2,0.4,0.2
			c0.3,0,0.8-0.2,0.8-0.5c0,0,0-0.1,0-0.1l-1.9-6.1c-0.1-0.3-0.4-0.4-0.8-0.4c-0.3,0-0.7,0.1-0.8,0.4l-1.9,6.1c0,0,0,0.1,0,0.1
			C4339.9-3521.8,4340.3-3521.6,4340.7-3521.6z M4342.6-3527l0.8,3h-1.7L4342.6-3527z"/>
		<path id="Path_361" class="st0" d="M4352.9-3532.5h-17.5c-0.4,0-0.6,0.3-0.6,0.7v7.3h1.3v-6.7h16.3v8h1.3v-8.6
			C4353.5-3532.2,4353.2-3532.5,4352.9-3532.5z"/>
		<path id="Path_362" class="st0" d="M4335.3-3532.5h17.5c0.4,0,0.6,0.3,0.6,0.7v7.3h-1.3v-6.7H4336v8h-1.3v-8.6
			C4334.7-3532.2,4335-3532.5,4335.3-3532.5z"/>
	</g>
	<path id="Path_327" class="st0" d="M4347.5-3521.6c0.3,0,0.6-0.1,0.6-0.4v-6.3c0-0.3-0.3-0.4-0.6-0.4s-0.6,0.1-0.6,0.4v6.3
		C4346.9-3521.7,4347.2-3521.6,4347.5-3521.6z"/>
</g>
</svg>
