<?xml version="1.0" encoding="utf-8"?>
<!-- Generator: Adobe Illustrator 24.0.2, SVG Export Plug-In . SVG Version: 6.00 Build 0)  -->
<svg version="1.1" id="Layer_1" xmlns="http://www.w3.org/2000/svg" xmlns:xlink="http://www.w3.org/1999/xlink" x="0px" y="0px"
	 viewBox="0 0 106 105.6" style="enable-background:new 0 0 106 105.6;" xml:space="preserve">
<style type="text/css">
	.st0{fill:#E8342B;}
	.st1{fill:#FFFFFF;}
</style>
<g id="dictinory_icon" transform="translate(-184 -115)">
	<g transform="matrix(1, 0, 0, 1, 184, 115)">
		<circle id="Ellipse_85-2" class="st0" cx="53" cy="53" r="53"/>
	</g>
	<g id="vocabulary" transform="translate(225.94 152.492)">
		<g id="Group_452">
			<path id="Path_70" class="st1" d="M29.4-9H-5.8C-7.6-9-9-7.6-9-5.8v46.1c0,1.8,1.4,3.2,3.2,3.2h35.2c1.7,0,3.2-1.4,3.2-3.2V-5.8
				C32.5-7.6,31.1-9,29.4-9z M29.5,40.3C29.5,40.4,29.4,40.4,29.5,40.3L29.5,40.3l-35.3,0.1c-0.1,0-0.1,0-0.1-0.1V24.9h35.4V40.3z
				 M29.5,21.9H-5.9V-5.8c0-0.1,0-0.1,0.1-0.1h35.2c0.1,0,0.1,0,0.1,0.1c0,0,0,0,0,0V21.9z"/>
		</g>
		<g id="Group_454" transform="translate(7.255 37.585)">
			<path id="Path_71" class="st1" d="M0.5-9h-8C-8.3-9-9-8.3-9-7.5s0.7,1.5,1.5,1.5h8c0.8,0,1.5-0.7,1.5-1.5S1.4-9,0.5-9z"/>
		</g>
		<g id="Group_456" transform="translate(7.255 42.485)">
			<path id="Path_72" class="st1" d="M6.7-9H-7.5C-8.3-9-9-8.3-9-7.5s0.7,1.5,1.5,1.5H6.7c0.8,0,1.5-0.7,1.5-1.5S7.6-9,6.7-9L6.7-9
				L6.7-9z"/>
		</g>
		<g id="Group_458" transform="translate(27.263 42.485)">
			<path id="Path_73" class="st1" d="M-3.6-9h-3.8C-8.3-9-9-8.3-9-7.5s0.7,1.5,1.5,1.5l0,0h3.8c0.8,0,1.5-0.7,1.5-1.5S-2.8-9-3.6-9z
				"/>
		</g>
		<g id="Group_460" transform="translate(7.571 7.796)">
			<path id="Path_74" class="st1" d="M5.7,7.8L0.9-7.7C0.8-8.1,0.4-8.5,0-8.7c-1.1-0.5-2.3-0.5-3.3,0c-0.4,0.2-0.8,0.5-0.9,1
				L-8.9,7.8C-9,7.9-9,8-9,8.1C-9,8.6-8.6,9-8.2,9.2c0.5,0.3,1.1,0.5,1.7,0.5c0.7,0,1.2-0.2,1.3-0.7l0.9-3.2H1l0.9,3.2
				C2,9.4,2.5,9.7,3.2,9.7c0.6,0,1.2-0.2,1.7-0.5C5.4,9,5.7,8.6,5.7,8C5.7,8,5.7,7.9,5.7,7.8z M-3.5,2.7l1.9-6.8l1.8,6.8H-3.5z"/>
		</g>
		<g id="Group_462" transform="translate(22.848 14.256)">
			<path id="Path_75" class="st1" d="M0.3-7.6C-0.9-8.6-2.4-9.1-4-9c-1,0-2,0.2-2.9,0.6C-7.9-8-8.3-7.5-8.3-7C-8.3-6.5-8.2-6-8-5.6
				C-7.8-5.2-7.4-5-7-5c0.3-0.1,0.7-0.3,1-0.5c0.6-0.3,1.3-0.5,2-0.5C-3.5-6-3-5.8-2.6-5.4C-2.3-5-2.1-4.5-2.2-4v0.3h-0.9
				c-1.5-0.1-3,0.2-4.4,0.8C-8.5-2.3-9.1-1.2-9,0c-0.1,1,0.3,1.9,0.9,2.6c0.6,0.6,1.5,0.9,2.3,0.9c1.5-0.1,3-0.9,3.9-2.1v0.6
				c0,0.4,0.2,0.7,0.5,0.9C-1,3.1-0.6,3.2-0.2,3.2c0.5,0,1-0.1,1.4-0.4C1.5,2.7,1.7,2.4,1.8,2v-6C1.8-5.3,1.3-6.6,0.3-7.6z
				 M-2.8-0.2c-0.3,0.4-0.8,0.6-1.3,0.7C-4.5,0.5-5,0.2-5-0.3c0-0.1,0-0.2,0-0.2c0-0.3,0.2-0.7,0.4-0.8c0.3-0.2,0.6-0.3,1-0.4
				c0.5-0.1,0.9-0.1,1.4-0.1h0.1v0.1l0,0C-2.2-1.2-2.4-0.6-2.8-0.2L-2.8-0.2z"/>
		</g>
	</g>
</g>
</svg>
