<svg xmlns="http://www.w3.org/2000/svg" viewBox="0 0 66.04 59.46"><defs><style>.cls-1{fill:#00cdcd;}</style></defs><g id="Layer_2" data-name="Layer 2"><g id="Layer_1-2" data-name="Layer 1"><path id="alpha" class="cls-1" d="M60.86,39.46c0,3.93-1.72,4.36-2.34,4.38-.4-.24-1.59-1.6-3-5.5-.71-2-1.22-4-1.45-5,4.28-14.71,3.56-30.24,3.52-30.9L57.51,0H41.94l.23,2.79c0,.08.14,1.8.23,4.58A19.25,19.25,0,0,0,40.33,5C37,1.63,32.61,0,27.08,0h-.76A30.78,30.78,0,0,0,19,.75a23,23,0,0,0-11.29,6C2.61,11.8,0,19.4,0,29.32,0,40,2.69,48.07,8,53.26a22.28,22.28,0,0,0,15.35,6.18h2.29l.41,0A26.31,26.31,0,0,0,39.63,56a24.8,24.8,0,0,0,6.44-5.64,25.23,25.23,0,0,0,2.61,4.08c2.63,3.29,5.71,5,8.92,5.05h.11a8.37,8.37,0,0,0,5.61-2.24A9.71,9.71,0,0,0,66,49.9V39.46ZM5.16,29.32c0-8.49,2.09-14.85,6.21-18.9A15.87,15.87,0,0,1,14.18,8.2c-2.57,4.94-3.86,12-3.86,21.12,0,9.89,1.47,17.46,4.38,22.61a15.79,15.79,0,0,1-3.11-2.35C7.32,45.39,5.16,38.58,5.16,29.32Zm28.1,20.56a12.8,12.8,0,0,1-8.42,4.33,6.94,6.94,0,0,1-3.38-1.86c-2.73-2.57-6-8.65-6-23,0-13.68,3-19.5,5.61-22A7.24,7.24,0,0,1,26,5.16h1.09c9.65,0,13.48,13.68,14.71,19.78-1,9.32-3.33,19.29-8.53,24.94Zm27.6,0a4.89,4.89,0,0,1-1.08,3.55,3.22,3.22,0,0,1-2,.84h-.1c-3.87,0-7.21-5.95-8.51-9.95l-.58-1.79H45.08l-.75,1.27a24.31,24.31,0,0,1-4.11,5.26c3.74-6.26,6.09-15.27,7-26.88a140.42,140.42,0,0,0,.26-17h5.05c0,5-.31,16.62-3.55,27.37l-.19.63.13.65a55.56,55.56,0,0,0,2,6.93c1.31,3.54,3.5,8.23,7.43,8.26a7,7,0,0,0,2.48-.45V49.9Z"/></g></g></svg>