<svg xmlns="http://www.w3.org/2000/svg" viewBox="0 0 73.35 39.5"><defs><style>.cls-1{fill:#5fee87;}</style></defs><g id="Layer_2" data-name="Layer 2"><g id="Layer_1-2" data-name="Layer 1"><g id="Group_1382" data-name="Group 1382"><path id="Path_462" data-name="Path 462" class="cls-1" d="M14.11,25.39a2.83,2.83,0,0,1-2.83-2.82h0V14.11a2.83,2.83,0,0,1,2.83-2.83h0a2.83,2.83,0,0,1,2.82,2.83h0v8.46a2.82,2.82,0,0,1-2.82,2.82Z"/><path id="Path_463" data-name="Path 463" class="cls-1" d="M22.57,31V8.46a2.82,2.82,0,0,1,2.82-2.82h0a2.82,2.82,0,0,1,2.82,2.82h0V31a2.82,2.82,0,0,1-2.82,2.82h0A2.82,2.82,0,0,1,22.57,31Z"/><path id="Path_464" data-name="Path 464" class="cls-1" d="M36.68,39.5a2.83,2.83,0,0,1-2.83-2.82h0V2.82a2.83,2.83,0,0,1,5.65,0V36.68a2.82,2.82,0,0,1-2.82,2.82Z"/><path id="Path_465" data-name="Path 465" class="cls-1" d="M45.14,31V8.46a2.82,2.82,0,0,1,5.64,0V31a2.82,2.82,0,0,1-5.64,0Z"/><path id="Path_466" data-name="Path 466" class="cls-1" d="M59.25,25.39a2.83,2.83,0,0,1-2.83-2.82V14.11a2.83,2.83,0,0,1,2.83-2.83h0a2.83,2.83,0,0,1,2.82,2.83v8.46a2.82,2.82,0,0,1-2.82,2.82Z"/><path id="Path_467" data-name="Path 467" class="cls-1" d="M70.53,22.57a2.82,2.82,0,0,1-2.82-2.82h0V16.93a2.82,2.82,0,1,1,5.64,0v2.82a2.82,2.82,0,0,1-2.82,2.82Z"/><path id="Path_468" data-name="Path 468" class="cls-1" d="M5.64,19.75a2.82,2.82,0,0,1-2.82,2.82h0A2.82,2.82,0,0,1,0,19.75V16.93a2.82,2.82,0,0,1,2.82-2.82h0a2.82,2.82,0,0,1,2.82,2.82h0Z"/></g></g></g></svg>