<svg xmlns="http://www.w3.org/2000/svg" viewBox="0 0 73.37 70.21"><defs><style>.cls-1{fill:#eb524a;}</style></defs><g id="Layer_2" data-name="Layer 2"><g id="Layer_1-2" data-name="Layer 1"><g id="grammar"><path id="Path_133" data-name="Path 133" class="cls-1" d="M6.11,38.13h9.16A6.12,6.12,0,0,0,21.38,32V22.85a2.84,2.84,0,0,0-.1-.76,2.84,2.84,0,0,0,.1-.76V13.69a7.65,7.65,0,0,0-7.63-7.64H7.64a7.6,7.6,0,0,0-5.4,2.24,3.05,3.05,0,0,0,4.32,4.32,1.49,1.49,0,0,1,1.07-.45h6.11a1.53,1.53,0,0,1,1.53,1.53v4.58H9.16A9.17,9.17,0,0,0,0,27.44V32A6.12,6.12,0,0,0,6.11,38.13Zm0-10.69a3.06,3.06,0,0,1,3.05-3.06h6.11V32H6.11Z"/><path id="Path_134" data-name="Path 134" class="cls-1" d="M39.71,15.22H32.07V3A3.06,3.06,0,0,0,26,3V35.07A3.07,3.07,0,0,0,29,38.13H39.71a7.65,7.65,0,0,0,7.64-7.64V22.85A7.64,7.64,0,0,0,39.71,15.22Zm1.53,15.27A1.54,1.54,0,0,1,39.71,32H32.07V21.33h7.64a1.53,1.53,0,0,1,1.53,1.52Z"/><path id="Path_135" data-name="Path 135" class="cls-1" d="M70.26,32H62.62A4.58,4.58,0,0,1,58,27.44V22.85a4.59,4.59,0,0,1,4.58-4.58h7.64a3.06,3.06,0,0,0,.11-6.11H62.62A10.7,10.7,0,0,0,51.93,22.85v4.59A10.7,10.7,0,0,0,62.62,38.13h7.64A3.06,3.06,0,0,0,70.37,32Z"/><path id="Path_136" data-name="Path 136" class="cls-1" d="M36.66,70.2a3,3,0,0,0,2.16-.9L60.2,47.92a3.05,3.05,0,0,0-4.32-4.31L36.66,62.83,25.07,51.24a3.05,3.05,0,0,0-4.32,4.32L34.5,69.31a3,3,0,0,0,2.16.9Z"/></g></g></g></svg>