<?xml version="1.0" encoding="utf-8"?>
<!-- Generator: Adobe Illustrator 24.0.2, SVG Export Plug-In . SVG Version: 6.00 Build 0)  -->
<svg version="1.1" id="Layer_1" xmlns="http://www.w3.org/2000/svg" xmlns:xlink="http://www.w3.org/1999/xlink" x="0px" y="0px"
	 viewBox="0 0 85 84.8" style="enable-background:new 0 0 85 84.8;" xml:space="preserve">
<style type="text/css">
	.st0{fill:#67B8FC;}
	.st1{fill:#FFFFFF;}
</style>
<g id="Group_807" transform="translate(-773 -2213)">
	<g id="Group_549" transform="translate(782.272 2222.404)">
		<g transform="matrix(1, 0, 0, 1, -9.27, -9.4)">
			<circle id="Ellipse_89-2" class="st0" cx="42.5" cy="42.5" r="42.5"/>
		</g>
		<g id="grammar" transform="translate(16.158 18.177)">
			<path id="Path_133" class="st1" d="M-4.6,18.3h6.5c2.4,0,4.4-2,4.4-4.4V7.4c0-0.2,0-0.4-0.1-0.5c0-0.2,0.1-0.4,0.1-0.5V0.8
				c0-3-2.4-5.4-5.5-5.5h-4.4C-5-4.6-6.4-4.1-7.4-3c-0.9,0.8-0.9,2.2,0,3.1s2.2,0.9,3.1,0c0,0,0,0,0,0c0.2-0.2,0.5-0.3,0.8-0.3h4.4
				c0.6,0,1.1,0.5,1.1,1.1v3.3h-4.4C-6.1,4.1-9,7-9,10.6v3.3C-9,16.3-7,18.3-4.6,18.3z M-4.6,10.6c0-1.2,1-2.2,2.2-2.2h4.4v5.5h-6.5
				V10.6z"/>
			<path id="Path_134" class="st1" d="M19.4,1.9h-5.5v-8.7c0-1.2-1-2.2-2.2-2.2c-1.2,0-2.2,1-2.2,2.2v22.9c0,1.2,1,2.2,2.2,2.2h7.6
				c3,0,5.4-2.4,5.5-5.5V7.4C24.8,4.3,22.4,1.9,19.4,1.9z M20.4,12.8c0,0.6-0.5,1.1-1.1,1.1h-5.5V6.3h5.5c0.6,0,1.1,0.5,1.1,1.1
				L20.4,12.8z"/>
			<path id="Path_135" class="st1" d="M41.2,13.9h-5.5c-1.8,0-3.3-1.5-3.3-3.3V7.4c0-1.8,1.5-3.3,3.3-3.3h5.5c1.2,0,2.2-1,2.2-2.2
				c0-1.2-1-2.2-2.2-2.2h-5.5c-4.2,0-7.6,3.4-7.6,7.6v3.3c0,4.2,3.4,7.6,7.6,7.6h5.5c1.2,0,2.2-1,2.2-2.2
				C43.3,14.9,42.4,13.9,41.2,13.9z"/>
			<path id="Path_136" class="st1" d="M17.2,41.2c0.6,0,1.1-0.2,1.5-0.6L34,25.3c0.8-0.9,0.8-2.2,0-3.1c-0.8-0.8-2.2-0.8-3,0
				L17.2,35.9l-8.3-8.3c-0.9-0.8-2.2-0.8-3.1,0c-0.8,0.8-0.8,2.2,0,3l9.8,9.8C16,40.9,16.6,41.2,17.2,41.2z"/>
		</g>
	</g>
</g>
</svg>
