<svg xmlns="http://www.w3.org/2000/svg" viewBox="0 0 78.68 78.68"><defs><style>.cls-1{fill:#11e6e6;}.cls-2{fill:#fff;}</style></defs><g id="Layer_2" data-name="Layer 2"><g id="Layer_1-2" data-name="Layer 1"><g id="Group_1406" data-name="Group 1406"><g id="Group_1393" data-name="Group 1393"><g id="Group_1314" data-name="Group 1314"><circle id="Ellipse_140" data-name="Ellipse 140" class="cls-1" cx="39.34" cy="39.34" r="39.34"/><circle id="Ellipse_143" data-name="Ellipse 143" class="cls-2" cx="39.34" cy="39.34" r="36.34"/><circle id="Ellipse_144" data-name="Ellipse 144" class="cls-1" cx="39.34" cy="39.34" r="33.34"/></g><path id="Path_404" data-name="Path 404" class="cls-2" d="M46.63,51.27a.57.57,0,0,0-.7-.19,66.49,66.49,0,0,1-6.44,2.78.27.27,0,0,1-.07-.08.68.68,0,0,1-.12-.44c0-1.55,1.16-6.24,3.46-14,2-6.49,2.17-7.84,2.17-8.28a2.1,2.1,0,0,0-.77-1.68,3,3,0,0,0-2-.59,10.29,10.29,0,0,0-4.9,1.61,26.16,26.16,0,0,0-6.16,5.28.56.56,0,0,0,0,.69.57.57,0,0,0,.67.2c.77-.32,4.71-1.93,5.28-2.29a2.44,2.44,0,0,1,1.21-.44h0s0,0,0,.1a4.08,4.08,0,0,1-.21,1.19c-3.35,10.84-5,17.5-5,20.33a3.4,3.4,0,0,0,.82,2.38,2.91,2.91,0,0,0,2.24.9,7.79,7.79,0,0,0,3.67-1.26A42.84,42.84,0,0,0,46.56,52,.58.58,0,0,0,46.63,51.27Zm-.11-31.42A2.8,2.8,0,0,0,44.44,19a3.56,3.56,0,0,0-2.69,1.22,4.2,4.2,0,0,0-1.1,2.9,3.18,3.18,0,0,0,.81,2.2,2.72,2.72,0,0,0,2.06.87,3.56,3.56,0,0,0,2.67-1.29A4.24,4.24,0,0,0,47.34,22a2.92,2.92,0,0,0-.82-2.13Z"/></g></g></g></g></svg>