<?xml version="1.0" encoding="utf-8"?>
<!-- Generator: Adobe Illustrator 24.0.2, SVG Export Plug-In . SVG Version: 6.00 Build 0)  -->
<svg version="1.1" id="Layer_1" xmlns="http://www.w3.org/2000/svg" xmlns:xlink="http://www.w3.org/1999/xlink" x="0px" y="0px"
	 viewBox="0 0 29.6 29.5" style="enable-background:new 0 0 29.6 29.5;" xml:space="preserve">
<style type="text/css">
	.st0{fill:none;stroke:#B3B3B3;stroke-width:1.5;}
</style>
<path id="Icon_awesome-search" class="st0" d="M28.4,25l-5.5-5.5c-0.2-0.2-0.6-0.4-0.9-0.4h-0.9c3.9-5,3-12.1-2-16s-12.1-3-16,2
	s-3,12.1,2,16c4.1,3.2,9.9,3.2,14,0V22c0,0.3,0.1,0.7,0.4,0.9l5.5,5.5c0.5,0.5,1.3,0.5,1.8,0c0,0,0,0,0,0l1.5-1.5
	C28.9,26.3,28.9,25.5,28.4,25z M12.1,19.1c-3.9,0-7-3.1-7-7s3.1-7,7-7s7,3.1,7,7S16,19.1,12.1,19.1z"/>
</svg>
