<svg xmlns="http://www.w3.org/2000/svg" width="48.18" height="48.18" viewBox="0 0 48.18 48.18">
  <path id="Icon_awesome-user-circle" data-name="Icon awesome-user-circle" d="M24.09.563a24.09,24.09,0,1,0,24.09,24.09A24.086,24.086,0,0,0,24.09.563Zm0,9.325a8.548,8.548,0,1,1-8.548,8.548A8.548,8.548,0,0,1,24.09,9.888Zm0,33.415A18.614,18.614,0,0,1,9.859,36.678a10.83,10.83,0,0,1,9.568-5.809,2.377,2.377,0,0,1,.69.107,12.861,12.861,0,0,0,3.973.67,12.812,12.812,0,0,0,3.973-.67,2.377,2.377,0,0,1,.69-.107,10.83,10.83,0,0,1,9.568,5.809A18.614,18.614,0,0,1,24.09,43.3Z" transform="translate(0 -0.563)" fill="#00cdcd"/>
</svg>
