<svg xmlns="http://www.w3.org/2000/svg" width="78.684" height="78.684" viewBox="0 0 78.684 78.684">
  <g id="information" transform="translate(-1651 -143)">
    <circle id="Ellipse_140" data-name="Ellipse 140" cx="39.342" cy="39.342" r="39.342" transform="translate(1651 143)" fill="#67b8fc"/>
    <circle id="Ellipse_143" data-name="Ellipse 143" cx="36.342" cy="36.342" r="36.342" transform="translate(1654 146)" fill="#fff"/>
    <circle id="Ellipse_144" data-name="Ellipse 144" cx="33.342" cy="33.342" r="33.342" transform="translate(1657 149)" fill="#67b8fc"/>
    <path id="Path_343" data-name="Path 343" d="M198.135,109.273a.556.556,0,0,0-.7-.189,66.288,66.288,0,0,1-6.443,2.777.252.252,0,0,1-.067-.078.753.753,0,0,1-.122-.444c0-1.544,1.166-6.243,3.466-13.964,1.944-6.488,2.166-7.832,2.166-8.276a2.1,2.1,0,0,0-.767-1.678,3.03,3.03,0,0,0-1.966-.589,10.2,10.2,0,0,0-4.9,1.611,26.155,26.155,0,0,0-6.155,5.277.552.552,0,0,0-.044.689.57.57,0,0,0,.667.2c.778-.322,4.71-1.933,5.288-2.289a2.464,2.464,0,0,1,1.211-.444h.033c0,.022.011.056.011.1a3.953,3.953,0,0,1-.211,1.189c-3.344,10.843-4.977,17.5-4.977,20.33a3.389,3.389,0,0,0,.822,2.389,2.913,2.913,0,0,0,2.233.9,7.767,7.767,0,0,0,3.677-1.266,43.533,43.533,0,0,0,6.71-5.521A.573.573,0,0,0,198.135,109.273Zm-.111-31.428A2.8,2.8,0,0,0,195.946,77a3.549,3.549,0,0,0-2.688,1.222,4.139,4.139,0,0,0-1.1,2.9,3.105,3.105,0,0,0,.811,2.2,2.71,2.71,0,0,0,2.055.867A3.529,3.529,0,0,0,197.69,82.9a4.236,4.236,0,0,0,1.155-2.933A2.916,2.916,0,0,0,198.024,77.844Z" transform="translate(1499.496 85)" fill="#fff"/>
  </g>
</svg>
