<?xml version="1.0" encoding="utf-8"?>
<!-- Generator: Adobe Illustrator 24.0.2, SVG Export Plug-In . SVG Version: 6.00 Build 0)  -->
<svg version="1.1" id="Layer_1" xmlns="http://www.w3.org/2000/svg" xmlns:xlink="http://www.w3.org/1999/xlink" x="0px" y="0px"
	 viewBox="0 0 78.7 78.7" style="enable-background:new 0 0 78.7 78.7;" xml:space="preserve">
<style type="text/css">
	.st0{fill:#F59666;}
	.st1{fill:#FFFFFF;}
</style>
<g id="info" transform="translate(-5537 -3999)">
	<g id="Group_1160" transform="translate(297 -82)">
		<circle id="Ellipse_140" class="st0" cx="5279.3" cy="4120.3" r="39.3"/>
		<circle id="Ellipse_143" class="st1" cx="5279.3" cy="4120.3" r="36.3"/>
		<circle id="Ellipse_144" class="st0" cx="5279.3" cy="4120.3" r="33.3"/>
	</g>
	<path id="Path_343" class="st1" d="M5583.6,4050.3c-0.2-0.2-0.5-0.3-0.7-0.2c-2.1,1-4.2,2-6.4,2.8c0,0-0.1,0-0.1-0.1
		c-0.1-0.1-0.1-0.3-0.1-0.4c0-1.5,1.2-6.2,3.5-14c1.9-6.5,2.2-7.8,2.2-8.3c0-0.6-0.3-1.3-0.8-1.7c-0.6-0.4-1.3-0.6-2-0.6
		c-1.7,0.1-3.4,0.7-4.9,1.6c-2.3,1.4-4.4,3.2-6.2,5.3c-0.2,0.2-0.2,0.5,0,0.7c0.2,0.2,0.4,0.3,0.7,0.2c0.8-0.3,4.7-1.9,5.3-2.3
		c0.4-0.3,0.8-0.4,1.2-0.4h0c0,0,0,0.1,0,0.1c0,0.4-0.1,0.8-0.2,1.2c-3.3,10.8-5,17.5-5,20.3c0,0.9,0.3,1.7,0.8,2.4
		c0.6,0.6,1.4,0.9,2.2,0.9c1.3-0.1,2.6-0.5,3.7-1.3c2.4-1.6,4.7-3.5,6.7-5.5C5583.8,4050.8,5583.8,4050.5,5583.6,4050.3z
		 M5583.5,4018.8c-0.5-0.6-1.3-0.9-2.1-0.8c-1,0-2,0.4-2.7,1.2c-0.7,0.8-1.1,1.8-1.1,2.9c0,0.8,0.3,1.6,0.8,2.2
		c0.5,0.6,1.3,0.9,2.1,0.9c1,0,2-0.5,2.7-1.3c0.7-0.8,1.2-1.8,1.2-2.9C5584.4,4020.2,5584.1,4019.4,5583.5,4018.8L5583.5,4018.8z"/>
</g>
</svg>
