<svg xmlns="http://www.w3.org/2000/svg" xmlns:xlink="http://www.w3.org/1999/xlink" width="152" height="152" viewBox="0 0 152 152">
  <defs>
    <filter id="Rectangle_937" x="0" y="0" width="152" height="152" filterUnits="userSpaceOnUse">
      <feOffset input="SourceAlpha"/>
      <feGaussianBlur stdDeviation="3" result="blur"/>
      <feFlood flood-opacity="0.302"/>
      <feComposite operator="in" in2="blur"/>
      <feComposite in="SourceGraphic"/>
    </filter>
  </defs>
  <g id="JS" transform="translate(-563 -327)">
    <g transform="matrix(1, 0, 0, 1, 563, 327)" filter="url(#Rectangle_937)">
      <rect id="Rectangle_937-2" data-name="Rectangle 937" width="134" height="134" rx="10" transform="translate(9 9)" fill="#e8342b"/>
    </g>
    <path id="js-format" d="M100.854,16.3a1.032,1.032,0,0,0-.73-.3h-28.9A7.233,7.233,0,0,0,64,23.225V70.7a7.233,7.233,0,0,0,7.225,7.225h35.092a7.233,7.233,0,0,0,7.225-7.225V29.418a1.032,1.032,0,0,0-.3-.73Zm.3,3.222,8.862,8.862h-3.7a5.166,5.166,0,0,1-5.161-5.161Zm-29.932-1.46H99.092v5.161a7.233,7.233,0,0,0,7.225,7.225h5.161v28.9H66.064V23.225a5.166,5.166,0,0,1,5.161-5.161Zm35.092,57.8H71.225A5.166,5.166,0,0,1,66.064,70.7V61.414h45.414V70.7a5.166,5.166,0,0,1-5.161,5.161ZM87.739,64.51V70.7a3.1,3.1,0,0,1-6.193,0,1.032,1.032,0,0,1,2.064,0,1.032,1.032,0,1,0,2.064,0V64.51a1.032,1.032,0,1,1,2.064,0Zm4.129,2.064A1.033,1.033,0,0,0,92.9,67.606a3.1,3.1,0,1,1,0,6.193H90.835a1.032,1.032,0,0,1,0-2.064H92.9a1.032,1.032,0,1,0,0-2.064,3.1,3.1,0,0,1,0-6.193h2.064a1.032,1.032,0,1,1,0,2.064H92.9A1.033,1.033,0,0,0,91.868,66.574Zm0-24.771A1.032,1.032,0,1,1,92.9,42.835,1.032,1.032,0,0,1,91.868,41.8Zm-8.257,0a1.032,1.032,0,1,1,1.032,1.032A1.032,1.032,0,0,1,83.61,41.8Zm4.129,0a1.032,1.032,0,1,1,1.032,1.032A1.032,1.032,0,0,1,87.739,41.8Zm-13.418,0a1.032,1.032,0,0,1,1.032-1.032,1.033,1.033,0,0,0,1.032-1.032V35.61a3.1,3.1,0,0,1,3.1-3.1,1.032,1.032,0,1,1,0,2.064A1.033,1.033,0,0,0,78.45,35.61v4.129a3.083,3.083,0,0,1-.79,2.064,3.083,3.083,0,0,1,.79,2.064V48a1.033,1.033,0,0,0,1.032,1.032,1.032,1.032,0,1,1,0,2.064,3.1,3.1,0,0,1-3.1-3.1V43.867a1.033,1.033,0,0,0-1.032-1.032A1.032,1.032,0,0,1,74.321,41.8Zm24.771,2.064a3.084,3.084,0,0,1,.79-2.064,3.084,3.084,0,0,1-.79-2.064V35.61a1.033,1.033,0,0,0-1.032-1.032,1.032,1.032,0,0,1,0-2.064,3.1,3.1,0,0,1,3.1,3.1v4.129a1.033,1.033,0,0,0,1.032,1.032,1.032,1.032,0,1,1,0,2.064,1.033,1.033,0,0,0-1.032,1.032V48a3.1,3.1,0,0,1-3.1,3.1,1.032,1.032,0,0,1,0-2.064A1.033,1.033,0,0,0,99.092,48Z" transform="translate(550 356)" fill="#fff" stroke="#fff" stroke-width="0.5"/>
  </g>
</svg>
