<?xml version="1.0" encoding="utf-8"?>
<!-- Generator: Adobe Illustrator 24.0.2, SVG Export Plug-In . SVG Version: 6.00 Build 0)  -->
<svg version="1.1" id="Layer_1" xmlns="http://www.w3.org/2000/svg" xmlns:xlink="http://www.w3.org/1999/xlink" x="0px" y="0px"
	 viewBox="0 0 686 152" style="enable-background:new 0 0 686 152;" xml:space="preserve">
<style type="text/css">
	.st0{fill:#547D8F;}
	.st1{fill:none;stroke:#FFFFFF;stroke-width:2;stroke-miterlimit:10;}
</style>
<g>
	<path id="Rectangle_937-2_8_" class="st0" d="M19,9h648c5.5,0,10,4.5,10,10v114c0,5.5-4.5,10-10,10H19c-5.5,0-10-4.5-10-10V19
		C9,13.5,13.5,9,19,9z"/>
</g>
<g>
	<path class="st1" d="M285,56.6h-5.1c-1.2,0-2.3,1.1-2.1,2.1v5.1c0,1.2,0.9,2.1,2.1,2.1h5.1c1.2,0,2.1-0.9,2.1-2.1v-5.1
		C287.2,57.5,286.2,56.6,285,56.6z"/>
	<path class="st1" d="M315.2,85.7h-5.1c-1.2,0-2.1,1.1-2.1,2.1V93c0,1.2,0.9,2.1,2.1,2.1h5.1c1.2,0,2.1-0.9,2.1-2.1v-5.1
		C317.3,86.6,316.4,85.7,315.2,85.7z"/>
	<path class="st1" d="M300.1,85.7H295c-1.2,0-2.3,1.1-2.1,2.1V93c0,1.2,0.9,2.1,2.1,2.1h5.1c1.2,0,2.1-0.9,2.1-2.1v-5.1
		C302.2,86.6,301.3,85.7,300.1,85.7z"/>
	<path class="st1" d="M285,71.1h-5.1c-1.2,0-2.3,1.1-2.1,2.1v5.1c0,1.2,0.9,2.1,2.1,2.1h5.1c1.2,0,2.1-0.9,2.1-2.1v-5.1
		C287.2,72,286.2,71.1,285,71.1z"/>
	<path class="st1" d="M300.1,71.1H295c-1.2,0-2.3,1.1-2.1,2.1v5.1c0,1.2,0.9,2.1,2.1,2.1h5.1c1.2,0,2.1-0.9,2.1-2.1v-5.1
		C302.2,72,301.3,71.1,300.1,71.1z"/>
	<path class="st1" d="M300.1,56.6H295c-1.2,0-2.3,1.1-2.1,2.1v5.1c0,1.2,0.9,2.1,2.1,2.1h5.1c1.2,0,2.1-0.9,2.1-2.1v-5.1
		C302.2,57.5,301.3,56.6,300.1,56.6z"/>
	<path class="st1" d="M340.2,80.4h5.1c1.2,0,2.1-0.9,2.1-2.1v-5.1c0-1.2-0.9-2.1-2.1-2.1h-5.1c-1.2,0-2.1,1.1-2.1,2.1v5.1
		C338.1,79.5,339,80.4,340.2,80.4z"/>
	<path class="st1" d="M285,85.7h-5.1c-1.2,0-2.3,1.1-2.1,2.1V93c0,1.2,0.9,2.1,2.1,2.1h5.1c1.2,0,2.1-0.9,2.1-2.1v-5.1
		C287.2,86.6,286.2,85.7,285,85.7z"/>
	<path class="st1" d="M387.5,63.9c0,1.2,0.9,2.1,2.1,2.1H403c1.2,0,2.1-0.9,2.1-2.1v-5.1c0-1.2-0.9-2.1-2.1-2.1h-13.4
		c-1.2,0-2.3,1.1-2.1,2.1V63.9z"/>
	<path class="st1" d="M340.2,66h5.1c1.2,0,2.1-0.9,2.1-2.1v-5.1c0-1.2-0.9-2.1-2.1-2.1h-5.1c-1.2,0-2.1,1.1-2.1,2.1v5.1
		C338.1,65.1,339,66,340.2,66z"/>
	<path class="st1" d="M325.1,80.4h5.1c1.2,0,2.1-0.9,2.1-2.1v-5.1c0-1.2-0.9-2.1-2.1-2.1h-5.1c-1.2,0-2.1,1.1-2.1,2.1v5.1
		C323,79.5,323.9,80.4,325.1,80.4z"/>
	<path class="st1" d="M325.1,66h5.1c1.2,0,2.1-0.9,2.1-2.1v-5.1c0-1.2-0.9-2.1-2.1-2.1h-5.1c-1.2,0-2.1,1.1-2.1,2.1v5.1
		C323,65.1,323.9,66,325.1,66z"/>
	<path class="st1" d="M360.4,56.6h-5.1c-1.2,0-2.1,1.1-2.1,2.1v5.1c0,1.2,0.9,2.1,2.1,2.1h5.1c1.2,0,2.1-0.9,2.1-2.1v-5.1
		C362.5,57.5,361.6,56.6,360.4,56.6z"/>
	<path class="st1" d="M391.6,71.1h-5.1c-1.2,0-2.3,1.1-2.1,2.1v5.1c0,1.2,0.9,2.1,2.1,2.1h5.1c1.2,0,2.1-0.9,2.1-2.1v-5.1
		C393.7,72,392.8,71.1,391.6,71.1z"/>
	<path class="st1" d="M391.6,85.7h-5.1c-1.2,0-2.3,1.1-2.1,2.1V93c0,1.2,0.9,2.1,2.1,2.1h5.1c1.2,0,2.1-0.9,2.1-2.1v-5.1
		C393.7,86.6,392.8,85.7,391.6,85.7z"/>
	<path class="st1" d="M375.5,56.6h-5.1c-1.2,0-2.1,1.1-2.1,2.1v5.1c0,1.2,0.9,2.1,2.1,2.1h5.1c1.2,0,2.1-0.9,2.1-2.1v-5.1
		C377.6,57.5,376.7,56.6,375.5,56.6z"/>
	<path class="st1" d="M315.2,71.1h-5.1c-1.2,0-2.1,1.1-2.1,2.1v5.1c0,1.2,0.9,2.1,2.1,2.1h5.1c1.2,0,2.1-0.9,2.1-2.1v-5.1
		C317.3,72,316.4,71.1,315.2,71.1z"/>
	<path class="st1" d="M406.4,71.1h-5.1c-1.2,0-2.3,1.1-2.1,2.1v5.1c0,1.2,0.9,2.1,2.1,2.1h5.1c1.2,0,2.1-0.9,2.1-2.1v-5.1
		C408.5,72,407.6,71.1,406.4,71.1z"/>
	<path class="st1" d="M417.2,47.6l-0.2-0.2c-2.3-2.3-5.3-3.6-8.6-3.6H277.6c-3.3,0-6.3,1.4-8.6,3.6c-2.3,2.3-3.6,5.3-3.6,8.6v40
		c0,3.3,1.4,6.3,3.6,8.6c2.3,2.3,5.3,3.6,8.6,3.6h130.7c3.3,0,6.3-1.4,8.6-3.6c2.3-2.3,3.6-5.3,3.6-8.6V56
		C420.6,52.7,419.4,49.8,417.2,47.6z"/>
	<path class="st1" d="M414.4,95.8c0,1.7-0.6,3.2-1.7,4.2c-1.1,1.2-2.6,1.8-4.2,1.8H277.7c-1.7,0-3.2-0.6-4.2-1.7
		c-1.1-1.1-1.7-2.6-1.7-4.2V56c0-1.7,0.6-3.2,1.7-4.2c1.1-1.2,2.6-1.8,4.2-1.8h130.8c1.7,0,3.2,0.8,4.1,1.8l0.2,0.2
		c1.1,1.1,1.7,2.6,1.7,4.1v39.7H414.4z"/>
	<path class="st1" d="M406.4,85.7h-5.1c-1.2,0-2.3,1.1-2.1,2.1V93c0,1.2,0.9,2.1,2.1,2.1h5.1c1.2,0,2.1-0.9,2.1-2.1v-5.1
		C408.5,86.6,407.6,85.7,406.4,85.7z"/>
	<path class="st1" d="M315.2,56.6h-5.1c-1.2,0-2.1,1.1-2.1,2.1v5.1c0,1.2,0.9,2.1,2.1,2.1h5.1c1.2,0,2.1-0.9,2.1-2.1v-5.1
		C317.3,57.5,316.4,56.6,315.2,56.6z"/>
	<path class="st1" d="M375.5,71.1h-5.1c-1.2,0-2.1,1.1-2.1,2.1v5.1c0,1.2,0.9,2.1,2.1,2.1h5.1c1.2,0,2.1-0.9,2.1-2.1v-5.1
		C377.6,72,376.7,71.1,375.5,71.1z"/>
	<path class="st1" d="M358,85.7h-32.9c-1.2,0-2.1,1.1-2.1,2.1V93c0,1.2,0.9,2.1,2.1,2.1H358c1.2,0,2.1-0.9,2.1-2.1v-5.1
		C360.1,86.6,359.2,85.7,358,85.7z"/>
	<path class="st1" d="M360.4,71.1h-5.1c-1.2,0-2.1,1.1-2.1,2.1v5.1c0,1.2,0.9,2.1,2.1,2.1h5.1c1.2,0,2.1-0.9,2.1-2.1v-5.1
		C362.5,72,361.6,71.1,360.4,71.1z"/>
	<path class="st1" d="M375.5,85.7h-5.1c-1.2,0-2.1,1.1-2.1,2.1V93c0,1.2,0.9,2.1,2.1,2.1h5.1c1.2,0,2.1-0.9,2.1-2.1v-5.1
		C377.6,86.6,376.7,85.7,375.5,85.7z"/>
</g>
</svg>
