<svg xmlns="http://www.w3.org/2000/svg" viewBox="0 0 81.14 75.53"><defs><style>.cls-1{fill:#185d92;fill-rule:evenodd;}</style></defs><g id="Layer_2" data-name="Layer 2"><g id="Layer_1-2" data-name="Layer 1"><path id="Path_18" data-name="Path 18" class="cls-1" d="M75,20.71c.54-.91.76-1.81.35-2.38C59.65-6.13,21.48-6.09,5.76,18.33c-.4.57-.2,1.45.34,2.36-2.38,4.18-9,17.84-4.67,33.91a14.14,14.14,0,0,0-.1,5.65c.82,4.47,3.54,7.94,6.6,8.94L6.14,59.5l2.1,11.34a2.63,2.63,0,0,0,3.06,2.1h0c.39,2.06,3.71,2.85,6.57,2.51h0l.32,0h0a7.5,7.5,0,0,0,2.18-.64l.12-.07.2-.11.19-.11.12-.08.2-.15.07-.07a1.07,1.07,0,0,0,.19-.18l0,0,.16-.2,0-.06a2.39,2.39,0,0,0,.13-.21l0-.07a1,1,0,0,0,.09-.21l0-.1a1.55,1.55,0,0,0,0-.21.76.76,0,0,0,0-.15.47.47,0,0,0,0-.17,2.07,2.07,0,0,0,0-.35q-1.39-7.63-2.82-15.27c-.93-5-1.86-10.14-2.79-15.23a1.93,1.93,0,0,0-.12-.41l0-.09L16.15,41l-.07-.09a2,2,0,0,0-.19-.22l-.08-.07a2.34,2.34,0,0,0-.27-.2l-.16-.09-.24-.11-.25-.09-.12,0L14.44,40h0a8.77,8.77,0,0,0-4.55.71l-.16.07-.3.14c-2,.93-3.54,2.41-3.24,4A2.65,2.65,0,0,0,4,47.92v0l.31,1.65a7.35,7.35,0,0,0-1.13,1.17c-.74-9.07,1.22-20,6-27l.36.19h0a2.28,2.28,0,0,0,1.64.23h0a.64.64,0,0,0,.19-.08l.06,0a.51.51,0,0,0,.13-.09,1,1,0,0,0,.17-.18C27.71,5,54,5,69.39,23.76a.77.77,0,0,0,.18.18.38.38,0,0,0,.13.09l.06,0a.71.71,0,0,0,.18.08h0a2.26,2.26,0,0,0,1.63-.23h0l.37-.19c4.77,7,6.74,18,6,27a7.35,7.35,0,0,0-1.13-1.17l.3-1.65A2.66,2.66,0,0,0,75,44.84h0c.3-1.55-1.26-3-3.24-4l-.3-.14-.17-.07A8.67,8.67,0,0,0,66.74,40h0l-.33.08-.12,0-.25.09-.23.11-.16.09a1.89,1.89,0,0,0-.27.2.3.3,0,0,0-.08.08,1.34,1.34,0,0,0-.2.21L65,41a1.35,1.35,0,0,0-.15.26l0,.09a3.17,3.17,0,0,0-.12.41C63.75,46.8,62.82,51.89,61.9,57S60,67.13,59.08,72.22a1.32,1.32,0,0,0,0,.34c0,.06,0,.12,0,.18a.61.61,0,0,0,0,.14,1.6,1.6,0,0,0,0,.21s0,.07,0,.1.06.15.09.21a.3.3,0,0,0,0,.08,2.25,2.25,0,0,0,.12.21l0,0,.16.2.06.06.18.18.08.06.2.15.12.08.18.12.2.11.13.06a7.53,7.53,0,0,0,2.17.64H63l.32,0h0c2.86.34,6.18-.44,6.57-2.5a2.63,2.63,0,0,0,3.06-2.1h0L75,59.35l-1.82,9.84c3.07-1,5.78-4.47,6.57-8.94a13.92,13.92,0,0,0-.07-5.64C84,38.58,77.42,24.93,75,20.71Z"/></g></g></svg>