<?xml version="1.0" encoding="utf-8"?>
<!-- Generator: Adobe Illustrator 24.0.2, SVG Export Plug-In . SVG Version: 6.00 Build 0)  -->
<svg version="1.1" id="Layer_1" xmlns="http://www.w3.org/2000/svg" xmlns:xlink="http://www.w3.org/1999/xlink" x="0px" y="0px"
	 viewBox="0 0 53 52" style="enable-background:new 0 0 53 52;" xml:space="preserve">
<style type="text/css">
	.st0{fill:#185D92;}
	.st1{fill-rule:evenodd;clip-rule:evenodd;fill:#FFFFFF;}
</style>
<g id="Group_684" transform="translate(-9138.5 -501.5)">
	<g id="Group_402" transform="translate(9158.271 521)">
		<g transform="matrix(1, 0, 0, 1, -19.77, -19.5)">
			<ellipse id="Ellipse_72-2" class="st0" cx="26.5" cy="26" rx="26.5" ry="26"/>
		</g>
		<path id="Path_18" class="st1" d="M19.5,0.2c0.2-0.3,0.3-0.7,0.1-0.9c-5.8-9-19.8-9-25.6,0C-6.1-0.5-6-0.2-5.8,0.1
			C-8,3.9-8.6,8.4-7.5,12.6c-0.2,0.7-0.2,1.4,0,2.1c0.2,1.4,1.1,2.7,2.4,3.3l-0.7-3.6l0.8,4.2c0.1,0.5,0.6,0.9,1.1,0.8c0,0,0,0,0,0
			c0.1,0.8,1.4,1,2.4,0.9l0,0l0.1,0h0c0.3,0,0.5-0.1,0.8-0.2l0,0l0.1,0c0,0,0,0,0.1,0l0,0c0,0,0,0,0.1-0.1l0,0c0,0,0,0,0.1-0.1l0,0
			c0,0,0,0,0.1-0.1l0,0c0,0,0-0.1,0-0.1l0,0c0,0,0-0.1,0-0.1c0,0,0,0,0,0c0,0,0,0,0-0.1c0,0,0,0,0-0.1s0,0,0-0.1c0,0,0-0.1,0-0.1
			c-0.3-1.9-0.7-3.7-1-5.6s-0.7-3.7-1-5.6c0-0.1,0-0.1,0-0.1c0,0,0,0,0,0c0,0,0-0.1-0.1-0.1l0,0c0,0,0-0.1-0.1-0.1l0,0
			c0,0-0.1,0-0.1-0.1c0,0,0,0-0.1,0s-0.1,0-0.1,0s-0.1,0-0.1,0l0,0c0,0-0.1,0-0.1,0h0c-0.6-0.1-1.1,0-1.7,0.3l-0.1,0
			c0,0-0.1,0-0.1,0.1C-5.4,7.9-5.9,8.4-5.8,9c-0.5,0.1-0.9,0.6-0.8,1.1c0,0,0,0,0,0l0.1,0.6c-0.2,0.1-0.3,0.3-0.4,0.4
			c-0.3-3.3,0.4-7.4,2.2-9.9c0,0,0.1,0,0.1,0.1l0,0C-4.4,1.4-4.2,1.5-4,1.4h0c0,0,0,0,0.1,0l0,0c0,0,0,0,0,0c0,0,0,0,0.1-0.1
			c5.9-6.9,15.5-6.9,21.2,0c0,0,0,0,0.1,0.1c0,0,0,0,0,0l0,0c0,0,0,0,0.1,0h0c0.2,0,0.4,0,0.6-0.1l0,0c0,0,0.1,0,0.1-0.1
			c1.8,2.6,2.5,6.6,2.2,9.9c-0.1-0.2-0.3-0.3-0.4-0.4l0.1-0.6c0.1-0.5-0.3-1-0.8-1.1c0,0,0,0,0,0c0.1-0.6-0.5-1.1-1.2-1.5
			c0,0-0.1,0-0.1-0.1l-0.1,0c-0.5-0.2-1.1-0.3-1.7-0.3h0c0,0-0.1,0-0.1,0l0,0c0,0-0.1,0-0.1,0s-0.1,0-0.1,0s0,0-0.1,0
			c0,0-0.1,0-0.1,0.1l0,0c0,0,0,0.1-0.1,0.1l0,0c0,0,0,0.1-0.1,0.1c0,0,0,0,0,0c0,0,0,0.1,0,0.1c-0.3,1.9-0.7,3.7-1,5.6
			s-0.7,3.7-1,5.6c0,0,0,0.1,0,0.1c0,0,0,0,0,0.1s0,0,0,0.1c0,0,0,0.1,0,0.1c0,0,0,0,0,0c0,0,0,0.1,0,0.1l0,0c0,0,0,0.1,0,0.1l0,0
			c0,0,0,0,0.1,0.1l0,0c0,0,0,0,0.1,0.1l0,0c0,0,0,0,0.1,0.1l0,0c0,0,0,0,0.1,0s0,0,0.1,0l0,0c0.3,0.1,0.5,0.2,0.8,0.2h0l0.1,0l0,0
			c1.1,0.1,2.3-0.2,2.4-0.9c0.5,0.1,1-0.2,1.1-0.8c0,0,0,0,0,0l0.8-4.2L18.8,18c1.3-0.6,2.2-1.8,2.4-3.3c0.1-0.7,0.1-1.4,0-2.1
			C22.2,8.4,21.6,3.9,19.5,0.2z"/>
	</g>
</g>
</svg>
