<?xml version="1.0" encoding="utf-8"?>
<!-- Generator: Adobe Illustrator 24.0.2, SVG Export Plug-In . SVG Version: 6.00 Build 0)  -->
<svg version="1.1" id="Layer_1" xmlns="http://www.w3.org/2000/svg" xmlns:xlink="http://www.w3.org/1999/xlink" x="0px" y="0px"
	 viewBox="0 0 49 49" style="enable-background:new 0 0 49 49;" xml:space="preserve">
<style type="text/css">
	.st0{fill:#11E6E6;}
	.st1{fill:#FFFFFF;}
</style>
<g id="Group_921" transform="translate(-5992 -5035)">
	<path id="Rectangle_966" class="st0" d="M6017.5,5084h-1c-13.5,0-24.5-11-24.5-24.5l0,0c0-13.5,11-24.5,24.5-24.5l0,0
		c13.5,0,24.5,11,24.5,24.5v1C6041,5073.5,6030.5,5084,6017.5,5084z"/>
	<g id="Group_920" transform="translate(-2924 -1906.975)">
		<g id="Group_916" transform="translate(8926 6956.144)">
			<path id="Path_290" class="st1" d="M26.3,21.2c-0.2,0-0.3,0-0.5-0.1L1.3,14C0.5,13.7,0,13.1,0,12.3V8.8C0,8,0.5,7.3,1.3,7.1
				l24.6-7c0.9-0.3,1.9,0.3,2.2,1.2c0,0.2,0.1,0.3,0.1,0.5v17.7c0,0.6-0.3,1.1-0.7,1.4C27.1,21.1,26.7,21.2,26.3,21.2L26.3,21.2z
				 M3.5,11l21.1,6.2v-13l-21.1,6L3.5,11z"/>
		</g>
		<g id="Group_917" transform="translate(8950.556 6954.975)">
			<path id="Path_291" class="st1" d="M1.8,23.4c-1,0-1.8-0.8-1.8-1.8V1.8C0,0.8,0.8,0,1.8,0c1,0,1.8,0.8,1.8,1.8v19.9
				C3.5,22.6,2.7,23.4,1.8,23.4z"/>
		</g>
		<g id="Group_918" transform="translate(8926 6961.991)">
			<path id="Path_292" class="st1" d="M1.8,9.4C0.8,9.4,0,8.6,0,7.6c0,0,0,0,0,0V1.8C0,0.8,0.8,0,1.8,0s1.8,0.8,1.8,1.8c0,0,0,0,0,0
				v5.8C3.5,8.6,2.7,9.4,1.8,9.4C1.8,9.4,1.8,9.4,1.8,9.4z"/>
		</g>
		<g id="Group_919" transform="translate(8930.678 6968.507)">
			<path id="Path_293" class="st1" d="M5.3,10C2.4,10,0,7.6,0,4.7c0-1.8,1-3.5,2.5-4.5C3.4-0.3,4.4,0,4.9,0.9s0.2,1.9-0.6,2.4
				c0,0,0,0,0,0C3.8,3.6,3.5,4.1,3.5,4.7c0,1,0.8,1.8,1.8,1.8c1,0,1.8-0.8,1.8-1.8c0,0,0,0,0,0C7,4.5,7,4.2,6.9,4
				C6.4,3.2,6.8,2.1,7.7,1.7C8.5,1.3,9.5,1.6,10,2.4c0.4,0.7,0.6,1.5,0.6,2.3C10.5,7.6,8.2,10,5.3,10C5.3,10,5.3,10,5.3,10L5.3,10z"
				/>
		</g>
	</g>
</g>
</svg>
