<?xml version="1.0" encoding="utf-8"?>
<!-- Generator: Adobe Illustrator 24.0.2, SVG Export Plug-In . SVG Version: 6.00 Build 0)  -->
<svg version="1.1" id="Layer_1" xmlns="http://www.w3.org/2000/svg" xmlns:xlink="http://www.w3.org/1999/xlink" x="0px" y="0px"
	 viewBox="0 0 84 85" style="enable-background:new 0 0 84 85;" xml:space="preserve">
<style type="text/css">
	.st0{fill:#F8C154;}
	.st1{fill:#FFFFFF;}
</style>
<g id="Group_806" transform="translate(-495 -2210)">
	<g id="Group_482" transform="translate(503.554 2219.374)">
		<g transform="matrix(1, 0, 0, 1, -8.55, -9.37)">
			<ellipse id="Ellipse_77-2" class="st0" cx="42" cy="42.5" rx="42" ry="42.5"/>
		</g>
		<path id="grade" class="st1" d="M44.8,6.1H14.1c-0.5,0-0.9,0.4-0.9,0.9c0,0,0,0,0,0v52.4c0,0.5,0.4,0.9,0.9,0.9l0,0H52
			c0.5,0,0.9-0.4,0.9-0.9l0,0V14.3c0-0.2-0.1-0.5-0.3-0.6l-7.2-7.2C45.3,6.2,45,6.1,44.8,6.1z M45.7,9.2l4.1,4.1h-4.1L45.7,9.2z
			 M15,58.5V7.9h28.9v6.3c0,0.5,0.4,0.9,0.9,0.9l0,0h6.3v43.3L15,58.5z M17.7,12.5c0-0.5,0.4-0.9,0.9-0.9l0,0h9.9
			c0.5,0,0.9,0.4,0.9,0.9s-0.4,0.9-0.9,0.9l0,0h-9.9C18.1,13.4,17.7,13,17.7,12.5C17.7,12.5,17.7,12.5,17.7,12.5L17.7,12.5z
			 M17.7,16.1c0-0.5,0.4-0.9,0.9-0.9l0,0h13.5c0.5,0,0.9,0.4,0.9,0.9c0,0.5-0.4,0.9-0.9,0.9l0,0H18.6C18.1,17,17.7,16.6,17.7,16.1
			C17.7,16.1,17.7,16.1,17.7,16.1L17.7,16.1z M48.4,21.5c0,0.5-0.4,0.9-0.9,0.9l0,0H24c-0.5,0-0.9-0.4-0.9-0.9s0.4-0.9,0.9-0.9h23.5
			C48,20.6,48.4,21,48.4,21.5C48.4,21.5,48.4,21.5,48.4,21.5z M48.4,50.4c0,0.5-0.4,0.9-0.9,0.9l0,0h-9.9c-0.5,0-0.9-0.4-0.9-0.9
			s0.4-0.9,0.9-0.9h9.9C48,49.5,48.4,49.9,48.4,50.4C48.4,50.4,48.4,50.4,48.4,50.4L48.4,50.4z M25.9,46.8c0,0.5-0.4,0.9-0.9,0.9
			l0,0h-6.3c-0.5,0-0.9-0.4-0.9-0.9s0.4-0.9,0.9-0.9h6.3C25.4,45.9,25.8,46.3,25.9,46.8C25.9,46.8,25.9,46.8,25.9,46.8z M34,46.8
			c0,0.5-0.4,0.9-0.9,0.9l0,0h-4.5c-0.5,0-0.9-0.4-0.9-0.9s0.4-0.9,0.9-0.9h4.5C33.6,45.9,34,46.3,34,46.8C34,46.8,34,46.8,34,46.8z
			 M48.4,54c0,0.5-0.4,0.9-0.9,0.9l0,0H43c-0.5,0-0.9-0.4-0.9-0.9c0-0.5,0.4-0.9,0.9-0.9h4.5C48,53.1,48.4,53.5,48.4,54
			C48.4,54,48.4,54,48.4,54L48.4,54z M31.9,30.1c-0.2-0.4-0.7-0.6-1.2-0.4c-0.2,0.1-0.3,0.2-0.4,0.4l-3.5,7.2c-0.2,0.4,0,1,0.4,1.2
			c0.4,0.2,1,0,1.2-0.4l1.1-2.2h3.2l1.1,2.2c0.2,0.5,0.8,0.6,1.2,0.4c0.5-0.2,0.6-0.8,0.4-1.2L31.9,30.1z M30.4,34.1l0.7-1.5
			l0.7,1.5H30.4z M39.4,32.3c0.5,0,0.9,0.4,0.9,0.9s-0.4,0.9-0.9,0.9h-0.9V35c0,0.5-0.4,0.9-0.9,0.9c-0.5,0-0.9-0.4-0.9-0.9v-0.9
			h-0.9c-0.5,0-0.9-0.4-0.9-0.9s0.4-0.9,0.9-0.9h0.9v-0.9c0-0.5,0.4-0.9,0.9-0.9c0.5,0,0.9,0.4,0.9,0.9v0.9H39.4z M48.4,25.1
			c0-0.5-0.4-0.9-0.9-0.9l0,0H37.4c-2.8-1.2-5.9-1.2-8.7,0H18.6c-0.5,0-0.9,0.4-0.9,0.9s0.4,0.9,0.9,0.9h7.3
			c-0.6,0.5-1.2,1.1-1.6,1.8h-5.6c-0.5,0-0.9,0.4-0.9,0.9s0.4,0.9,0.9,0.9h4.6c-0.3,0.6-0.5,1.2-0.6,1.8h-4c-0.5,0-0.9,0.4-0.9,0.9
			c0,0.5,0.4,0.9,0.9,0.9h3.6c0,0.3,0,0.6,0,0.9s0,0.6,0,0.9h-3.6c-0.5,0-0.9,0.4-0.9,0.9s0.4,0.9,0.9,0.9h4
			c0.2,0.6,0.4,1.2,0.6,1.8h-4.6c-0.5,0-0.9,0.4-0.9,0.9s0.4,0.9,0.9,0.9H24c0.1,0,0.1,0,0.2,0c0.5,0.7,1,1.3,1.7,1.8h-7.3
			c-0.5,0-0.9,0.4-0.9,0.9s0.4,0.9,0.9,0.9h9.9c0.1,0,0.1,0,0.2,0c2.8,1.2,5.9,1.2,8.7,0c0.1,0,0.1,0,0.2,0h8.1
			c0.5,0,0.9-0.4,0.9-0.9s-0.4-0.9-0.9-0.9l0,0h-5.5c0.6-0.5,1.2-1.1,1.6-1.8h5.6c0.5,0,0.9-0.4,0.9-0.9s-0.4-0.9-0.9-0.9h-4.6
			c0.3-0.6,0.5-1.2,0.6-1.8h4c0.5,0,0.9-0.4,0.9-0.9S48,35,47.5,35h-3.6c0-0.3,0-0.6,0-0.9s0-0.6,0-0.9h3.6c0.5,0,0.9-0.4,0.9-0.9
			c0-0.5-0.4-0.9-0.9-0.9h-4c-0.2-0.6-0.4-1.2-0.6-1.8h4.6c0.5,0,0.9-0.4,0.9-0.9s-0.4-0.9-0.9-0.9l0,0h-5.4c-0.1,0-0.1,0-0.2,0
			c-0.5-0.7-1-1.3-1.7-1.8h7.3C48,26,48.4,25.6,48.4,25.1C48.4,25.1,48.4,25.1,48.4,25.1L48.4,25.1z M42.1,34.1c0,5-4,9-9,9
			s-9-4-9-9s4-9,9-9l0,0C38.1,25.1,42.1,29.1,42.1,34.1L42.1,34.1L42.1,34.1z"/>
	</g>
</g>
</svg>
