<?xml version="1.0" encoding="utf-8"?>
<!-- Generator: Adobe Illustrator 24.0.2, SVG Export Plug-In . SVG Version: 6.00 Build 0)  -->
<svg version="1.1" id="Layer_1" xmlns="http://www.w3.org/2000/svg" xmlns:xlink="http://www.w3.org/1999/xlink" x="0px" y="0px"
	 viewBox="0 0 686 152" style="enable-background:new 0 0 686 152;" xml:space="preserve">
<style type="text/css">
	.st0{fill:#01DADA;}
	.st1{fill:none;stroke:#FFFFFF;stroke-width:2;}
</style>
<g id="Group_913" transform="translate(-1026 -713)">
	<g transform="matrix(1, 0, 0, 1, 1026, 713)">
		<path id="Rectangle_937-2" class="st0" d="M19,9h648c5.5,0,10,4.5,10,10v114c0,5.5-4.5,10-10,10H19c-5.5,0-10-4.5-10-10V19
			C9,13.5,13.5,9,19,9z"/>
	</g>
	<path id="Path_223" class="st1" d="M1394.8,775c0.4-0.6,0.5-1.3,0.3-2c-8-14.2-26.1-19.2-40.3-11.2c-4.7,2.6-8.6,6.5-11.2,11.2
		c-0.3,0.6-0.2,1.4,0.2,1.9c-1.8,3.4-6.6,14.6-3.4,27.8c-0.3,1.5-0.3,3.1-0.1,4.6c0.6,3.7,2.6,6.5,4.9,7.3l-1.3-7.9l1.5,9.3
		c0.1,1.1,1.1,1.9,2.2,1.7c0,0,0.1,0,0.1,0c0.3,1.7,2.7,2.3,4.9,2.1l0,0c0.1,0,0.2,0,0.2,0l0,0c0.6-0.1,1.1-0.3,1.6-0.5
		c0,0,0.1,0,0.1-0.1c0.1,0,0.1-0.1,0.2-0.1c0.1,0,0.1-0.1,0.1-0.1c0,0,0.1,0,0.1-0.1c0.1,0,0.1-0.1,0.1-0.1l0.1-0.1
		c0,0,0.1-0.1,0.1-0.1l0,0c0-0.1,0.1-0.1,0.1-0.2l0,0c0-0.1,0.1-0.1,0.1-0.2c0,0,0,0,0-0.1c0-0.1,0-0.1,0.1-0.2c0,0,0-0.1,0-0.1
		c0-0.1,0-0.1,0-0.2c0,0,0-0.1,0-0.1c0,0,0-0.1,0-0.1c0-0.1,0-0.2,0-0.3c-0.7-4.2-1.4-8.3-2.1-12.5c-0.7-4.1-1.4-8.3-2.1-12.5
		c0-0.1-0.1-0.2-0.1-0.3c0,0,0-0.1,0-0.1c0-0.1-0.1-0.1-0.1-0.2c0,0,0,0,0-0.1c0-0.1-0.1-0.1-0.1-0.2c0,0,0,0-0.1-0.1
		c-0.1-0.1-0.1-0.1-0.2-0.2c0,0-0.1,0-0.1-0.1c-0.1,0-0.1-0.1-0.2-0.1c-0.1,0-0.1,0-0.2-0.1c0,0-0.1,0-0.1,0c-0.1,0-0.2,0-0.2-0.1
		l0,0c-1.2-0.1-2.3,0.1-3.4,0.6c0,0-0.1,0-0.1,0.1c-0.1,0-0.2,0.1-0.2,0.1c-1.5,0.8-2.6,2-2.4,3.2c-1.1,0.3-1.8,1.4-1.6,2.5l0.2,1.4
		c-0.3,0.3-0.6,0.6-0.8,1c-0.5-7.4,0.9-16.4,4.4-22.2c0.1,0.1,0.2,0.1,0.3,0.2v0c0.4,0.2,0.8,0.3,1.2,0.2l0,0c0,0,0.1,0,0.1-0.1
		c0,0,0,0,0,0c0,0,0.1,0,0.1-0.1c0,0,0.1-0.1,0.1-0.1c11.8-15.4,31.3-15.4,42.6,0c0,0.1,0.1,0.1,0.1,0.1c0,0,0.1,0.1,0.1,0.1
		c0,0,0,0,0,0c0,0,0.1,0,0.1,0.1l0,0c0.4,0.1,0.8,0,1.2-0.2v0c0.1,0,0.2-0.1,0.3-0.2c3.5,5.7,5,14.7,4.4,22.2
		c-0.2-0.4-0.5-0.7-0.8-1l0.2-1.4c0.2-1.1-0.5-2.2-1.6-2.5c0.2-1.3-0.9-2.5-2.4-3.2c-0.1,0-0.1-0.1-0.2-0.1l-0.1-0.1
		c-1-0.5-2.2-0.7-3.4-0.6l0,0c-0.1,0-0.2,0-0.2,0.1c0,0-0.1,0-0.1,0c-0.1,0-0.1,0-0.2,0.1c-0.1,0-0.1,0.1-0.2,0.1c0,0-0.1,0-0.1,0.1
		c-0.1,0-0.1,0.1-0.2,0.2c0,0,0,0-0.1,0.1c-0.1,0.1-0.1,0.1-0.1,0.2c0,0,0,0,0,0.1c0,0.1-0.1,0.1-0.1,0.2c0,0,0,0,0,0.1
		c0,0.1-0.1,0.2-0.1,0.3c-0.7,4.2-1.4,8.3-2.1,12.5c-0.7,4.2-1.4,8.3-2.1,12.5c0,0.1,0,0.2,0,0.3c0,0,0,0.1,0,0.1c0,0,0,0.1,0,0.1
		c0,0.1,0,0.1,0,0.2c0,0,0,0.1,0,0.1c0,0.1,0,0.1,0.1,0.2c0,0,0,0,0,0.1c0,0.1,0.1,0.1,0.1,0.2l0,0c0,0.1,0.1,0.1,0.1,0.2l0,0
		c0,0,0.1,0.1,0.1,0.1l0.1,0.1c0,0,0.1,0.1,0.1,0.1c0,0,0.1,0,0.1,0.1c0,0,0.1,0.1,0.1,0.1c0,0,0.1,0.1,0.2,0.1c0,0,0.1,0,0.1,0.1
		c0.5,0.3,1,0.4,1.6,0.5l0,0c0.1,0,0.2,0,0.2,0l0,0c2.1,0.3,4.6-0.4,4.9-2.1c1.1,0.2,2.1-0.6,2.3-1.6c0,0,0-0.1,0-0.1l1.6-9.4
		l-1.3,8.1c2.3-0.8,4.3-3.7,4.9-7.3c0.3-1.5,0.2-3.1-0.1-4.6C1401.4,789.6,1396.6,778.4,1394.8,775z"/>
</g>
</svg>
