<svg xmlns="http://www.w3.org/2000/svg" viewBox="0 0 44.16 60.22"><defs><style>.cls-1{fill:#e8342b;}</style></defs><g id="Layer_2" data-name="Layer 2"><g id="Layer_1-2" data-name="Layer 1"><path id="grade" class="cls-1" d="M35.13,0H1A1,1,0,0,0,0,1V59.22a1,1,0,0,0,1,1H43.16a1,1,0,0,0,1-1V9a1.05,1.05,0,0,0-.29-.71l-8-8A1,1,0,0,0,35.13,0Zm1,3.43L40.73,8h-4.6ZM2,58.22V2H34.13V9a1,1,0,0,0,1,1h7V58.22ZM5,7A1,1,0,0,1,6,6H17.07a1,1,0,0,1,0,2H6A1,1,0,0,1,5,7Zm0,4a1,1,0,0,1,1-1H21.08a1,1,0,0,1,0,2H6a1,1,0,0,1-1-1Zm34.13,6a1,1,0,0,1-1,1H12.05a1,1,0,1,1,0-2h26.1a1,1,0,0,1,1,1Zm0,32.13a1,1,0,0,1-1,1h-11a1,1,0,0,1,0-2h11a1,1,0,0,1,1,1Zm-25.1-4a1,1,0,0,1-1,1H6a1,1,0,0,1,0-2h7a1,1,0,0,1,1,1Zm9,0a1,1,0,0,1-1,1h-5a1,1,0,1,1,0-2h5a1,1,0,0,1,1,1h0Zm16.06,8a1,1,0,0,1-1,1h-5a1,1,0,0,1,0-2h5a1,1,0,0,1,1,1h0ZM20.83,26.67a1,1,0,0,0-1.33-.48,1,1,0,0,0-.48.48l-3.86,8A1,1,0,0,0,15.63,36,1,1,0,0,0,17,35.57l1.18-2.44H21.7l1.17,2.44a1,1,0,1,0,1.81-.87ZM19.1,31.12l.82-1.7.81,1.7Zm10-2a1,1,0,0,1,0,2h-1v1a1,1,0,0,1-2,0v-1h-1a1,1,0,0,1,0-2h1v-1a1,1,0,0,1,2,0v1Zm10-8a1,1,0,0,0-1-1H26.89a12,12,0,0,0-9.62,0H6a1,1,0,0,0,0,2h8.1a12,12,0,0,0-1.82,2H6a1,1,0,0,0,0,2h5.12a12,12,0,0,0-.72,2H6a1,1,0,0,0,0,2h4.06c0,.33,0,.67,0,1s0,.67,0,1H6a1,1,0,0,0,0,2h4.4a12,12,0,0,0,.72,2H6a1,1,0,1,0,0,2h6a.85.85,0,0,0,.23,0,12.36,12.36,0,0,0,1.85,2H6a1,1,0,1,0,0,2h11l.17,0a12,12,0,0,0,9.69,0l.17,0h9a1,1,0,0,0,0-2H30a12,12,0,0,0,1.82-2h6.28a1,1,0,0,0,0-2H33a12.49,12.49,0,0,0,.71-2h4.4a1,1,0,1,0,0-2H34.08c0-.33.05-.67.05-1s0-.67-.05-1h4.06a1,1,0,1,0,0-2h-4.4a13,13,0,0,0-.71-2h5.11a1,1,0,0,0,0-2h-6a.85.85,0,0,0-.23,0,12.36,12.36,0,0,0-1.85-2h8.1a1,1,0,0,0,1-1Zm-7,10a10,10,0,1,1-10-10h0a10,10,0,0,1,10,10Z"/></g></g></svg>