<svg xmlns="http://www.w3.org/2000/svg" viewBox="0 0 106 106"><defs><style>.cls-1{fill:#00cdcd;}.cls-2{fill:#fff;}</style></defs><g id="Layer_2" data-name="Layer 2"><g id="Layer_1-2" data-name="Layer 1"><g id="Group_1405" data-name="Group 1405"><g id="Group_1392" data-name="Group 1392"><circle id="Ellipse_146-2" data-name="Ellipse 146-2" class="cls-1" cx="53" cy="53" r="53"/><g id="_18-eye" data-name=" 18-eye"><g id="Glyph"><path id="Path_405" data-name="Path 405" class="cls-2" d="M53,18A35,35,0,1,0,88,53,35,35,0,0,0,53,18ZM66.08,59A26.23,26.23,0,0,0,70,54.62a2.94,2.94,0,0,0,0-3.24A25.8,25.8,0,0,0,66.08,47L76.83,36.21a29.07,29.07,0,0,1,0,33.58ZM73,31.8,61.28,43.51a16.85,16.85,0,0,0-16.56,0L33,31.8A29.09,29.09,0,0,1,73,31.8ZM58.83,53A5.83,5.83,0,1,1,53,47.17h0A5.83,5.83,0,0,1,58.83,53ZM29.17,36.21,39.92,47A26.18,26.18,0,0,0,36,51.38a2.94,2.94,0,0,0,0,3.24A26.23,26.23,0,0,0,39.92,59L29.17,69.79a29.07,29.07,0,0,1,0-33.58ZM33,74.2,44.72,62.48a16.8,16.8,0,0,0,16.56,0L73,74.2a29.08,29.08,0,0,1-40,0Z"/><ellipse id="Ellipse_147" data-name="Ellipse 147" class="cls-2" cx="53" cy="32.79" rx="2.19" ry="3.29"/><circle id="Ellipse_148" data-name="Ellipse 148" class="cls-2" cx="76.76" cy="53" r="2.19"/><ellipse id="Ellipse_149" data-name="Ellipse 149" class="cls-2" cx="53" cy="73.21" rx="2.19" ry="3.29"/><circle id="Ellipse_150" data-name="Ellipse 150" class="cls-2" cx="29.24" cy="53" r="2.19"/></g></g></g></g></g></g></svg>