<svg xmlns="http://www.w3.org/2000/svg" viewBox="0 0 60.47 60"><defs><style>.cls-1{fill:#72b8f8;}</style></defs><g id="Layer_2" data-name="Layer 2"><g id="Layer_1-2" data-name="Layer 1"><g id="Group_1387" data-name="Group 1387"><path id="Path_469" data-name="Path 469" class="cls-1" d="M11.4,21.57H.94A.89.89,0,0,1,0,20.74V14.51a6.13,6.13,0,1,1,12.25,0v6.12a.88.88,0,0,1-.79.94ZM1.89,19.69h8.57V14.51a4.24,4.24,0,0,0-8.48,0v5.18Z"/><g id="Group_1383" data-name="Group 1383"><path id="Path_470" data-name="Path 470" class="cls-1" d="M36.64,60a.6.6,0,0,1-.37-.09.91.91,0,0,1-.57-.85V50.58a3.79,3.79,0,0,1,3.77-3.77H48a.82.82,0,0,1,.84.57.85.85,0,0,1-.18,1l-11.3,11.3A.87.87,0,0,1,36.64,60Zm2.83-11.21a1.9,1.9,0,0,0-1.89,1.89v6.21l8.1-8.1Z"/><rect id="Rectangle_1135" data-name="Rectangle 1135" class="cls-1" x="18.09" y="20.34" width="23.08" height="1.88"/></g><g id="Group_1384" data-name="Group 1384"><rect id="Rectangle_1136" data-name="Rectangle 1136" class="cls-1" x="18.09" y="20.34" width="23.08" height="1.88"/><rect id="Rectangle_1137" data-name="Rectangle 1137" class="cls-1" x="18.09" y="25.62" width="23.08" height="1.88"/><rect id="Rectangle_1138" data-name="Rectangle 1138" class="cls-1" x="18.09" y="30.89" width="23.08" height="1.88"/><rect id="Rectangle_1139" data-name="Rectangle 1139" class="cls-1" x="18.09" y="36.26" width="23.08" height="1.88"/><rect id="Rectangle_1140" data-name="Rectangle 1140" class="cls-1" x="18.09" y="41.54" width="23.08" height="1.88"/></g><g id="Group_1385" data-name="Group 1385"><rect id="Rectangle_1141" data-name="Rectangle 1141" class="cls-1" x="18.09" y="46.91" width="1.88" height="1.88"/><rect id="Rectangle_1142" data-name="Rectangle 1142" class="cls-1" x="21.85" y="46.91" width="1.88" height="1.88"/><rect id="Rectangle_1143" data-name="Rectangle 1143" class="cls-1" x="25.62" y="46.91" width="1.88" height="1.88"/><rect id="Rectangle_1144" data-name="Rectangle 1144" class="cls-1" x="29.39" y="46.91" width="1.88" height="1.88"/></g><path id="Path_471" data-name="Path 471" class="cls-1" d="M46.91,23.37a8.36,8.36,0,0,1,2-1.16V17.7a8.5,8.5,0,0,1-2-.58Z"/><path id="Path_472" data-name="Path 472" class="cls-1" d="M10.55,10.27h.08l-.08-.1Z"/><path id="Path_473" data-name="Path 473" class="cls-1" d="M35.21,10.27h6.66a8,8,0,0,1,0-1.89H35.42A8.55,8.55,0,0,1,35.21,10.27Z"/><path id="Path_474" data-name="Path 474" class="cls-1" d="M46.91,47.28,36.17,58h-22a1.88,1.88,0,0,1-1.88-1.88V14.41a6.29,6.29,0,0,0-1.62-4.14h-.08v-.1l.08.1h8.24a8,8,0,0,1-.22-1.89H6.22a.95.95,0,0,0,0,1.89,4.24,4.24,0,0,1,4.24,4.24V56.23A3.78,3.78,0,0,0,14.23,60H36.64a1.3,1.3,0,0,0,.66-.19l11.3-11.3a.84.84,0,0,0,.28-.66V37.7a8.54,8.54,0,0,1-2-1.17Z"/><path id="Path_475" data-name="Path 475" class="cls-1" d="M52.09,38.34A8.39,8.39,0,1,1,60.47,30h0A8.4,8.4,0,0,1,52.09,38.34Zm0-15a6.5,6.5,0,1,0,6.5,6.5h0A6.51,6.51,0,0,0,52.09,23.36Z"/><path id="Path_476" data-name="Path 476" class="cls-1" d="M50.21,17.8a8.38,8.38,0,1,1,8.38-8.38h0A8.4,8.4,0,0,1,50.21,17.8Zm0-15a6.5,6.5,0,1,0,6.5,6.5A6.5,6.5,0,0,0,50.21,2.83Z"/><path id="Path_477" data-name="Path 477" class="cls-1" d="M27,16.77a8.39,8.39,0,1,1,8.39-8.39h0A8.41,8.41,0,0,1,27,16.77ZM27,1.88a6.5,6.5,0,1,0,6.5,6.5A6.5,6.5,0,0,0,27,1.88Z"/><g id="Group_1386" data-name="Group 1386"><path id="Path_478" data-name="Path 478" class="cls-1" d="M27.69,4.24H26.47l-2.73,6.22-.1.09H25l.66-1.41h2.92l.66,1.41h1.32ZM28.07,8h-2L27,5.75Z"/><path id="Path_479" data-name="Path 479" class="cls-1" d="M53,11.87a2,2,0,0,0,.47-1.23,1.4,1.4,0,0,0-.37-1,2.15,2.15,0,0,0-.76-.47c.1,0,.1-.1.28-.19a1.57,1.57,0,0,0,.48-1.13,1.78,1.78,0,0,0-.48-1.13,2.44,2.44,0,0,0-.75-.47c-.28,0-.66-.1-1-.1H48.42v6.31h2.82A1.9,1.9,0,0,0,53,11.87ZM49.55,8.76V7.35h1.22a1.2,1.2,0,0,1,.76.19c.19.09.19.28.19.56s0,.66-1,.66Zm2.64,1.79a.58.58,0,0,1-.29.56,1.75,1.75,0,0,1-.84.19H49.55V9.89H51c.85,0,1.22.19,1.22.66Z"/><path id="Path_480" data-name="Path 480" class="cls-1" d="M53.78,31.27a3,3,0,0,1-.75.57,3.08,3.08,0,0,1-.85.19,1.91,1.91,0,0,1-1.41-.57,2.08,2.08,0,0,1,1.51-3.58,1.88,1.88,0,0,1,.84.19,2.14,2.14,0,0,1,.85.56l.1.1.75-.94-.09-.1a3.21,3.21,0,0,0-2.45-1.13,3.37,3.37,0,0,0-2.45.94,3.31,3.31,0,0,0,2.35,5.66A3.18,3.18,0,0,0,54.63,32l.1-.1Z"/></g></g></g></g></svg>