<?xml version="1.0" encoding="utf-8"?>
<!-- Generator: Adobe Illustrator 24.0.2, SVG Export Plug-In . SVG Version: 6.00 Build 0)  -->
<svg version="1.1" id="Layer_1" xmlns="http://www.w3.org/2000/svg" xmlns:xlink="http://www.w3.org/1999/xlink" x="0px" y="0px"
	 viewBox="0 0 106 106" style="enable-background:new 0 0 106 106;" xml:space="preserve">
<style type="text/css">
	.st0{fill:#F59666;}
	.st1{fill:#FFFFFF;}
	.st2{font-family:'Raleway-Bold';}
	.st3{font-size:50px;}
	.st4{font-size:35px;}
</style>
<g id="ra" transform="translate(-193 -120)">
	<g transform="matrix(1, 0, 0, 1, 193, 120)">
		<circle id="Ellipse_107-2" class="st0" cx="53" cy="53" r="53"/>
	</g>
	<text transform="matrix(1 0 0 1 212 197.71)" class="st1 st2 st3">R</text>
	<text transform="matrix(1 0 0 1 245.2496 197.71)" class="st1 st2 st4">A</text>
	<g id="ai" transform="translate(252.082 145.614)">
		<path id="Path_325" class="st1" d="M25.6,3.7c-1.3-1.3-3-2-4.8-2c-0.2,0-0.4,0-0.5,0C20-4.1,15.2-8.6,9.4-8.6
			C7-8.6,4.7-7.8,2.8-6.4C1-5-0.3-3.2-1-1.1c-4.6,0.8-8,4.8-8,9.5v0c0,0,0,0,0,0c0,4.3,3.5,7.7,7.8,7.7h1.1v4.4
			c0,0.4,0.3,0.6,0.6,0.6c0,0,0,0,0,0h2.7v3.1c0,0.2,0.1,0.5,0.3,0.6c0.1,0,0.2,0.1,0.3,0.1c0.1,0,0.3,0,0.4-0.1l5.1-3.7h8.8
			c0.4,0,0.6-0.3,0.6-0.6c0,0,0,0,0,0v-4.4h1.1c4.3,0,7.8-3.5,7.8-7.7c0-0.1,0-0.1,0-0.2C27.6,6.6,26.8,4.9,25.6,3.7L25.6,3.7z
			 M17.4,20H9.1c-0.1,0-0.3,0-0.4,0.1l-4.2,3.1v-2.5c0-0.4-0.3-0.6-0.7-0.6H1.2V8.2h16.3L17.4,20z M19.8,14.9h-1.1V7.6
			c0-0.4-0.3-0.6-0.6-0.7H0.5c-0.4,0-0.6,0.3-0.6,0.7v7.3h-1.1c-3.6,0-6.4-2.9-6.5-6.4c0,0,0,0,0,0c0,0,0,0,0-0.1l0,0
			c0-4.2,3.1-7.7,7.3-8.2c0.3,0,0.5-0.2,0.5-0.5C1.6-5.4,6.9-8.4,12-7c4.1,1.2,7,5,7,9.3c0,0,0,0.1,0,0.1c0,0.4,0.3,0.7,0.6,0.7
			c0,0,0.1,0,0.1,0c3-0.6,5.8,1.4,6.4,4.4c0.1,0.3,0.1,0.7,0.1,1c0,0,0,0.1,0,0.1C26.2,12.1,23.4,14.9,19.8,14.9L19.8,14.9z"/>
		<path id="Path_326" class="st1" d="M5.9,17.8c0.2,0,0.4-0.1,0.4-0.2l0.4-1.3h2.2l0.4,1.3c0,0.2,0.2,0.2,0.4,0.2
			c0.3,0,0.8-0.2,0.8-0.5c0,0,0-0.1,0-0.1l-1.9-6.1c-0.1-0.3-0.4-0.4-0.8-0.4c-0.3,0-0.7,0.1-0.8,0.4l-1.9,6.1c0,0,0,0.1,0,0.1
			C5.1,17.6,5.5,17.8,5.9,17.8z M7.8,12.3l0.8,3H6.9L7.8,12.3z"/>
		<path id="Path_327" class="st1" d="M12.7,17.8c0.3,0,0.6-0.1,0.6-0.4v-6.3c0-0.3-0.3-0.4-0.6-0.4s-0.6,0.1-0.6,0.4v6.3
			C12.1,17.6,12.4,17.8,12.7,17.8z"/>
	</g>
</g>
</svg>
