<?xml version="1.0" encoding="utf-8"?>
<!-- Generator: Adobe Illustrator 24.0.2, SVG Export Plug-In . SVG Version: 6.00 Build 0)  -->
<svg version="1.1" id="Layer_1" xmlns="http://www.w3.org/2000/svg" xmlns:xlink="http://www.w3.org/1999/xlink" x="0px" y="0px"
	 viewBox="0 0 78 78" style="enable-background:new 0 0 78 78;" xml:space="preserve">
<style type="text/css">
	.st0{fill:#EC935F;}
	.st1{fill:#FFFFFF;}
	.st2{font-family:'Stencil';}
	.st3{font-size:36px;}
	.st4{font-size:25px;}
	.st5{fill:none;}
	.st6{fill:#F59666;}
</style>
<g id="ra" transform="translate(-680 -18)">
	<g transform="matrix(1, 0, 0, 1, 680, 18)">
		<circle id="Ellipse_129-2" class="st0" cx="39" cy="39" r="39"/>
	</g>
	<text transform="matrix(1 0 0 1 699 74.598)" class="st1 st2 st3">R</text>
	<text transform="matrix(1 0 0 1 724.1719 74.598)" class="st1 st2 st4">A</text>
	<g id="Group_1254" transform="translate(5001.779 -3525.49)">
		<g id="Group_1253" transform="translate(-4276 3565)">
			<g id="Group_1252" transform="translate(0 0)">
				<path id="Path_358" class="st1" d="M12.6,8.6L12.6,8.6h-1.8v3.8H4.5c-0.1,0-0.2,0-0.3,0.1l-3.2,2.3v-1.9c0-0.3-0.2-0.5-0.5-0.5
					h-2V8.6h-1.8C-5.9,8.6-8,6.4-8,3.8c0,0,0,0,0,0s0,0,0,0c0-3.1,2.4-5.8,5.5-6.2c0.2,0,0.4-0.2,0.4-0.3c1.1-3.8,5.1-6,8.9-5
					C9.8-6.9,12-4.1,12-0.9v0.1c0,0.3,0.2,0.5,0.5,0.5c0,0,0,0,0,0c0,0,0.1,0,0.1,0c2.2-0.4,4.4,1,4.8,3.3c0,0.3,0.1,0.5,0.1,0.8
					c0,0,0,0.1,0,0.1C17.3,6.5,15.2,8.6,12.6,8.6z"/>
				<path id="Path_359" class="st5" d="M17.3,3c-0.4-2.2-2.6-3.7-4.8-3.3c0,0-0.1,0-0.1,0c-0.3,0-0.5-0.2-0.5-0.5c0,0,0,0,0,0v-0.1
					c0-4-3.2-7.2-7.2-7.2c-3.2,0-6,2.1-6.9,5.2c-0.1,0.2-0.2,0.3-0.4,0.3C-5.7-2.1-8,0.6-8,3.7c0,0,0,0,0,0s0,0,0,0
					c0,2.7,2.2,4.8,4.8,4.8h0.8l-2.1-7.1l18.6-0.2l-2.2,7.4h0.7l0,0c2.6,0,4.8-2.1,4.8-4.7c0,0,0-0.1,0-0.1
					C17.4,3.5,17.4,3.2,17.3,3z"/>
				<path id="Path_360" class="st1" d="M18.3,3.6c0-1.3-0.6-2.5-1.5-3.5l0,0c-0.9-0.9-2.2-1.5-3.6-1.5c-0.1,0-0.3,0-0.4,0
					C12.7-5.6,9.1-9,4.8-9C3-9,1.2-8.4-0.2-7.3c-1.3,1-2.3,2.4-2.8,3.9c-3.5,0.6-6,3.6-6,7.1v0c0,3.2,2.6,5.8,5.8,5.8h0.8v3.3
					c0,0.3,0.2,0.5,0.5,0.5h2v2.4c0,0.3,0.2,0.5,0.5,0.5c0,0,0,0,0,0c0.1,0,0.2,0,0.3-0.1l3.8-2.7h6.6c0.3,0,0.5-0.2,0.5-0.5v0l0,0
					V9.5h0.8c3.2,0,5.8-2.6,5.8-5.8C18.4,3.7,18.4,3.7,18.3,3.6z"/>
				<path id="Path_326" class="st6" d="M2.1,10.7c0.2,0,0.3,0,0.3-0.2l0.3-1h1.7l0.3,1c0,0.1,0.2,0.2,0.3,0.2c0.3,0,0.6-0.2,0.6-0.4
					c0,0,0-0.1,0-0.1L4.1,5.7C4.1,5.5,3.8,5.4,3.5,5.4C3.3,5.4,3,5.5,2.9,5.7l-1.4,4.5c0,0,0,0,0,0.1C1.5,10.6,1.9,10.7,2.1,10.7z
					 M3.5,6.7l0.6,2.2H2.9L3.5,6.7z"/>
				<path id="Path_361" class="st6" d="M11.2,2.6H-1.9c-0.3,0-0.5,0.2-0.5,0.5v5.5h1v-5h12.1v6h1V3.1C11.7,2.8,11.5,2.6,11.2,2.6z"
					/>
				<path id="Path_362" class="st6" d="M-1.9,2.6h13.1c0.3,0,0.5,0.2,0.5,0.5v5.5h-1v-5H-1.4v6h-1V3.1C-2.4,2.8-2.1,2.6-1.9,2.6z"/>
			</g>
			<path id="Path_327" class="st6" d="M7.2,10.7c0.2,0,0.4-0.1,0.4-0.3V5.7c0-0.2-0.2-0.3-0.4-0.3S6.8,5.5,6.8,5.7v4.7
				C6.8,10.6,7,10.7,7.2,10.7z"/>
		</g>
	</g>
</g>
</svg>
