<svg xmlns="http://www.w3.org/2000/svg" viewBox="0 0 73.35 60.14"><defs><style>.cls-1{fill:#2fda61;}</style></defs><g id="Layer_2" data-name="Layer 2"><g id="Layer_1-2" data-name="Layer 1"><g id="book"><path id="Path_35" data-name="Path 35" class="cls-1" d="M66.8,52.38V0l-2,.17A76.84,76.84,0,0,0,41.5,5.85L38,7.31V59.48l2.56-1.06a79.87,79.87,0,0,1,24.1-5.86Z"/><path id="Path_36" data-name="Path 36" class="cls-1" d="M73.35,7.75H69.42V53.59a1.32,1.32,0,0,1-1.2,1.31l-3.35.27c-1,.08-1.94.18-2.9.3L61,55.6l-1.94.28-1.12.2c-.58.1-1.16.2-1.73.32-.4.07-.79.16-1.19.25s-1.1.23-1.64.36l-1.23.3c-.53.13-1,.27-1.58.42l-1.23.35-1.56.48L46.6,59l-1.55.55-1.19.43-.53.21h30Z"/><path id="Path_37" data-name="Path 37" class="cls-1" d="M8.55.17,6.55,0V52.39l2.32.2A79.42,79.42,0,0,1,33,58.48l2.42,1V7.31L31.85,5.85A76.77,76.77,0,0,0,8.55.17Z"/><path id="Path_38" data-name="Path 38" class="cls-1" d="M0,7.75V60.14H30L29.56,60l-1.13-.42L26.83,59l-1.17-.38c-.53-.18-1.06-.34-1.6-.49l-1.18-.35-1.62-.42L20.08,57c-.55-.14-1.1-.26-1.66-.37-.39-.09-.78-.18-1.18-.25-.57-.12-1.14-.22-1.71-.32l-1.13-.2-1.9-.27-1-.13c-1-.12-1.92-.22-2.89-.3l-3.52-.3a1.32,1.32,0,0,1-1.2-1.31V7.75Z"/></g></g></g></svg>