<?xml version="1.0" encoding="utf-8"?>
<!-- Generator: Adobe Illustrator 24.0.2, SVG Export Plug-In . SVG Version: 6.00 Build 0)  -->
<svg version="1.1" id="Layer_1" xmlns="http://www.w3.org/2000/svg" xmlns:xlink="http://www.w3.org/1999/xlink" x="0px" y="0px"
	 viewBox="0 0 53 53" style="enable-background:new 0 0 53 53;" xml:space="preserve">
<style type="text/css">
	.st0{fill:#2FDA61;}
	.st1{fill:#FFFFFF;}
</style>
<g id="Group_683" transform="translate(-9289.5 -498.5)">
	<g id="Group_682">
		<g id="Group_421" transform="translate(7030 -1292)">
			<g transform="matrix(1, 0, 0, 1, 2259.5, 1790.5)">
				<circle id="Ellipse_71-2" class="st0" cx="26.5" cy="26.5" r="26.5"/>
			</g>
			<g id="book" transform="translate(2284 1817)">
				<path id="Path_35" class="st1" d="M15.6,9.3v-22.8l-0.9,0.1c-3.5,0.3-6.9,1.1-10.1,2.5L3-10.3v22.7l1.1-0.5
					c3.3-1.4,6.9-2.3,10.5-2.6L15.6,9.3z"/>
				<path id="Path_36" class="st1" d="M18.4-10.1h-1.7v20c0,0.3-0.2,0.5-0.5,0.6l-1.5,0.1c-0.4,0-0.8,0.1-1.3,0.1
					c-0.1,0-0.3,0-0.4,0.1c-0.3,0-0.6,0.1-0.8,0.1c-0.2,0-0.3,0.1-0.5,0.1C11.5,11,11.2,11,11,11c-0.2,0-0.3,0.1-0.5,0.1
					c-0.2,0.1-0.5,0.1-0.7,0.2c-0.2,0-0.4,0.1-0.5,0.1c-0.2,0.1-0.5,0.1-0.7,0.2c-0.2,0-0.4,0.1-0.5,0.2c-0.2,0.1-0.5,0.1-0.7,0.2
					l-0.5,0.2c-0.2,0.1-0.5,0.2-0.7,0.2c-0.2,0.1-0.3,0.1-0.5,0.2l-0.2,0.1h13.1L18.4-10.1z"/>
				<path id="Path_37" class="st1" d="M-9.8-13.4l-0.9-0.1V9.3l1,0.1C-6,9.7-2.5,10.6,0.8,12l1.1,0.4v-22.7L0.4-11
					C-2.9-12.3-6.3-13.1-9.8-13.4z"/>
				<path id="Path_38" class="st1" d="M-13.5-10.1v22.8h13.1c-0.1,0-0.1-0.1-0.2-0.1c-0.2-0.1-0.3-0.1-0.5-0.2
					c-0.2-0.1-0.5-0.2-0.7-0.2C-2,12.1-2.2,12.1-2.3,12c-0.2-0.1-0.5-0.1-0.7-0.2c-0.2-0.1-0.3-0.1-0.5-0.1
					c-0.2-0.1-0.5-0.1-0.7-0.2c-0.2,0-0.3-0.1-0.5-0.1c-0.2-0.1-0.5-0.1-0.7-0.2c-0.2,0-0.3-0.1-0.5-0.1c-0.2,0-0.5-0.1-0.7-0.1
					l-0.5-0.1c-0.3,0-0.6-0.1-0.8-0.1c-0.1,0-0.3,0-0.4-0.1c-0.4-0.1-0.8-0.1-1.3-0.1l-1.5-0.1c-0.3,0-0.5-0.3-0.5-0.6v-20H-13.5z"
					/>
			</g>
		</g>
	</g>
</g>
</svg>
