<svg xmlns="http://www.w3.org/2000/svg" xmlns:xlink="http://www.w3.org/1999/xlink" width="686" height="152" viewBox="0 0 686 152">
  <defs>
    <filter id="Rectangle_937" x="0" y="0" width="686" height="152" filterUnits="userSpaceOnUse">
      <feOffset input="SourceAlpha"/>
      <feGaussianBlur stdDeviation="3" result="blur"/>
      <feFlood flood-opacity="0.302"/>
      <feComposite operator="in" in2="blur"/>
      <feComposite in="SourceGraphic"/>
    </filter>
  </defs>
  <g id="RESOLUTION" transform="translate(-198 -713)">
    <g transform="matrix(1, 0, 0, 1, 198, 713)" filter="url(#Rectangle_937)">
      <rect id="Rectangle_937-2" data-name="Rectangle 937" width="668" height="134" rx="10" transform="translate(9 9)" fill="#185d92"/>
    </g>
    <g id="Group_780" data-name="Group 780" transform="translate(-12429 -432)">
      <g id="Group_778" data-name="Group 778" transform="translate(12939 1190)">
        <path id="Path_230" data-name="Path 230" d="M58.833,2H7.167A5.167,5.167,0,0,0,2,7.167V46.433A5.167,5.167,0,0,0,7.167,51.6H26.8v6.2H20.6a3.109,3.109,0,0,0-3.1,3.1v2.067A1.033,1.033,0,0,0,18.533,64H47.467A1.033,1.033,0,0,0,48.5,62.967V60.9a3.109,3.109,0,0,0-3.1-3.1H39.2V51.6H58.833A5.167,5.167,0,0,0,64,46.433V7.167A5.167,5.167,0,0,0,58.833,2ZM45.4,59.867A1.033,1.033,0,0,1,46.433,60.9v1.033H19.567V60.9A1.033,1.033,0,0,1,20.6,59.867ZM28.867,57.8V51.6h8.267v6.2ZM61.933,46.433a3.109,3.109,0,0,1-3.1,3.1H7.167a3.109,3.109,0,0,1-3.1-3.1v-3.1H61.933Zm0-5.167H4.067V7.167a3.109,3.109,0,0,1,3.1-3.1H58.833a3.109,3.109,0,0,1,3.1,3.1Z" transform="translate(-2 -2)" fill="#fff"/>
        <path id="Path_231" data-name="Path 231" d="M54,44h2.067v2.067H54Z" transform="translate(-0.267 -0.6)" fill="#fff"/>
        <path id="Path_232" data-name="Path 232" d="M50,44h2.067v2.067H50Z" transform="translate(-0.4 -0.6)" fill="#fff"/>
        <path id="Path_233" data-name="Path 233" d="M33.833,8H9.033A1.033,1.033,0,0,0,8,9.033V35.9a1.033,1.033,0,0,0,1.033,1.033h24.8A1.033,1.033,0,0,0,34.867,35.9V9.033A1.033,1.033,0,0,0,33.833,8ZM28.667,34.867H14.2v-3.1A5.167,5.167,0,0,1,19.367,26.6H23.5a5.167,5.167,0,0,1,5.167,5.167Zm-5.26-16.513,2.16.723v2.356a3.109,3.109,0,0,1-3.1,3.1H20.4a3.109,3.109,0,0,1-3.1-3.1v-2.2Zm-6.086-1.219A3.088,3.088,0,0,1,20.4,14.2h2.067a3.1,3.1,0,0,1,3.059,2.687l-1.695-.568a1.066,1.066,0,0,0-.475-.041ZM32.8,34.867H30.733v-3.1a7.253,7.253,0,0,0-4.578-6.727,5.146,5.146,0,0,0,1.478-3.606V17.3a5.167,5.167,0,0,0-5.167-5.167H20.4A5.167,5.167,0,0,0,15.233,17.3v4.133a5.146,5.146,0,0,0,1.478,3.606,7.253,7.253,0,0,0-4.578,6.727v3.1H10.067v-24.8H32.8Z" transform="translate(-1.8 -1.8)" fill="#fff"/>
        <path id="Path_234" data-name="Path 234" d="M37.033,36.2h18.6a1.033,1.033,0,0,0,1.033-1.033V31.033A1.033,1.033,0,0,0,55.633,30h-18.6A1.033,1.033,0,0,0,36,31.033v4.133A1.033,1.033,0,0,0,37.033,36.2Zm1.033-4.133H54.6v2.067H38.067Z" transform="translate(-0.867 -1.067)" fill="#fff"/>
        <path id="Path_235" data-name="Path 235" d="M36,8h4.133v2.067H36Z" transform="translate(-0.867 -1.8)" fill="#fff"/>
        <path id="Path_236" data-name="Path 236" d="M42,8H56.467v2.067H42Z" transform="translate(-0.667 -1.8)" fill="#fff"/>
        <path id="Path_237" data-name="Path 237" d="M36,14h4.133v2.067H36Z" transform="translate(-0.867 -1.6)" fill="#fff"/>
        <path id="Path_238" data-name="Path 238" d="M42,14H56.467v2.067H42Z" transform="translate(-0.667 -1.6)" fill="#fff"/>
        <path id="Path_239" data-name="Path 239" d="M36,20h4.133v2.067H36Z" transform="translate(-0.867 -1.4)" fill="#fff"/>
        <path id="Path_240" data-name="Path 240" d="M42,20H56.467v2.067H42Z" transform="translate(-0.667 -1.4)" fill="#fff"/>
        <path id="Path_241" data-name="Path 241" d="M36,26h4.133v2.067H36Z" transform="translate(-0.867 -1.2)" fill="#fff"/>
        <path id="Path_242" data-name="Path 242" d="M42,26H56.467v2.067H42Z" transform="translate(-0.667 -1.2)" fill="#fff"/>
      </g>
    </g>
  </g>
</svg>
