<?xml version="1.0" encoding="utf-8"?>
<!-- Generator: Adobe Illustrator 24.0.2, SVG Export Plug-In . SVG Version: 6.00 Build 0)  -->
<svg version="1.1" id="Layer_1" xmlns="http://www.w3.org/2000/svg" xmlns:xlink="http://www.w3.org/1999/xlink" x="0px" y="0px"
	 viewBox="0 0 151 152" style="enable-background:new 0 0 151 152;" xml:space="preserve">
<style type="text/css">
	.st0{fill:#185D92;}
	.st1{fill:#FFFFFF;}
</style>
<g transform="matrix(1, 0, 0, 1, 563, 327)">
	<path id="Rectangle_937-2_4_" class="st0" d="M-544.2-317h114c5.5,0,10,4.5,10,10v114c0,5.5-4.5,10-10,10h-114c-5.5,0-10-4.5-10-10
		v-114C-554.2-312.5-549.7-317-544.2-317z"/>
</g>
<g id="Group_780_1_" transform="translate(-12429 -432)">
	<g id="Group_778_1_" transform="translate(12939 1190)">
		<path id="Path_230_1_" class="st1" d="M-408.4-712H-460c-2.9,0-5.2,2.3-5.2,5.2v39.3c0,2.9,2.3,5.2,5.2,5.2h19.6v6.2h-6.2
			c-1.7,0-3.1,1.4-3.1,3.1v2.1c0,0.6,0.5,1,1,1l0,0h28.9c0.6,0,1-0.5,1-1c0,0,0,0,0,0v-2.1c0-1.7-1.4-3.1-3.1-3.1h-6.2v-6.2h19.6
			c2.9,0,5.2-2.3,5.2-5.2v-39.3C-403.2-709.7-405.5-712-408.4-712z M-421.8-654.1c0.6,0,1,0.5,1,1v1h-26.9v-1c0-0.6,0.5-1,1-1l0,0
			H-421.8z M-438.3-656.2v-6.2h8.3v6.2H-438.3z M-405.3-667.6c0,1.7-1.4,3.1-3.1,3.1H-460c-1.7,0-3.1-1.4-3.1-3.1v-3.1h57.9V-667.6z
			 M-405.3-672.7h-57.9v-34.1c0-1.7,1.4-3.1,3.1-3.1h51.7c1.7,0,3.1,1.4,3.1,3.1V-672.7z"/>
		<path id="Path_231_1_" class="st1" d="M-411.5-668.6h2.1v2.1h-2.1V-668.6z"/>
		<path id="Path_232_1_" class="st1" d="M-415.6-668.6h2.1v2.1h-2.1V-668.6z"/>
		<path id="Path_233_1_" class="st1" d="M-433.2-705.8H-458c-0.6,0-1,0.5-1,1l0,0v26.9c0,0.6,0.5,1,1,1l0,0h24.8c0.6,0,1-0.5,1-1
			c0,0,0,0,0,0v-26.9C-432.1-705.3-432.6-705.8-433.2-705.8C-433.2-705.8-433.2-705.8-433.2-705.8z M-438.3-678.9h-14.5v-3.1
			c0-2.9,2.3-5.2,5.2-5.2l0,0h4.1c2.9,0,5.2,2.3,5.2,5.2V-678.9z M-443.6-695.4l2.2,0.7v2.4c0,1.7-1.4,3.1-3.1,3.1h-2.1
			c-1.7,0-3.1-1.4-3.1-3.1v-2.2L-443.6-695.4z M-449.7-696.7c0.1-1.6,1.4-2.9,3.1-2.9h2.1c1.5,0,2.9,1.2,3.1,2.7l-1.7-0.6
			c-0.2,0-0.3-0.1-0.5,0L-449.7-696.7z M-434.2-678.9h-2.1v-3.1c0-3-1.8-5.6-4.6-6.7c0.9-1,1.5-2.3,1.5-3.6v-4.1
			c0-2.9-2.3-5.2-5.2-5.2h-2.1c-2.9,0-5.2,2.3-5.2,5.2v4.1c0,1.3,0.5,2.6,1.5,3.6c-2.8,1.1-4.6,3.8-4.6,6.7v3.1h-2.1v-24.8h22.7
			V-678.9z"/>
		<path id="Path_234_1_" class="st1" d="M-429-676.9h18.6c0.6,0,1-0.5,1-1c0,0,0,0,0,0v-4.1c0-0.6-0.5-1-1-1c0,0,0,0,0,0H-429
			c-0.6,0-1,0.5-1,1v4.1C-430.1-677.3-429.6-676.9-429-676.9C-429-676.9-429-676.9-429-676.9z M-428-681h16.5v2.1H-428L-428-681z"/>
		<path id="Path_235_1_" class="st1" d="M-430.1-705.8h4.1v2.1h-4.1V-705.8z"/>
		<path id="Path_236_1_" class="st1" d="M-423.9-705.8h14.5v2.1h-14.5V-705.8z"/>
		<path id="Path_237_1_" class="st1" d="M-430.1-699.6h4.1v2.1h-4.1V-699.6z"/>
		<path id="Path_238_1_" class="st1" d="M-423.9-699.6h14.5v2.1h-14.5V-699.6z"/>
		<path id="Path_239_1_" class="st1" d="M-430.1-693.4h4.1v2.1h-4.1V-693.4z"/>
		<path id="Path_240_1_" class="st1" d="M-423.9-693.4h14.5v2.1h-14.5V-693.4z"/>
		<path id="Path_241_1_" class="st1" d="M-430.1-687.2h4.1v2.1h-4.1V-687.2z"/>
		<path id="Path_242_1_" class="st1" d="M-423.9-687.2h14.5v2.1h-14.5V-687.2z"/>
	</g>
</g>
</svg>
