<?xml version="1.0" encoding="utf-8"?>
<!-- Generator: Adobe Illustrator 24.0.2, SVG Export Plug-In . SVG Version: 6.00 Build 0)  -->
<svg version="1.1" id="Layer_1" xmlns="http://www.w3.org/2000/svg" xmlns:xlink="http://www.w3.org/1999/xlink" x="0px" y="0px"
	 viewBox="0 0 106 106" style="enable-background:new 0 0 106 106;" xml:space="preserve">
<style type="text/css">
	.st0{fill:#185D92;}
	.st1{fill:#FFFFFF;}
</style>
<circle id="Ellipse_146-2" class="st0" cx="53" cy="53" r="53"/>
<path id="grade" class="st1" d="M68.3,17.4H27.9c-0.7,0-1.2,0.5-1.2,1.2l0,0v68.9c0,0.7,0.5,1.2,1.2,1.2h0h49.9
	c0.7,0,1.2-0.5,1.2-1.2c0,0,0,0,0,0l0,0V28c0-0.3-0.1-0.6-0.3-0.8l-9.5-9.5C68.9,17.5,68.6,17.4,68.3,17.4z M69.5,21.4l5.4,5.4h-5.4
	V21.4z M29.1,86.3V19.7h38V28c0,0.7,0.5,1.2,1.2,1.2l0,0h8.3v57L29.1,86.3z M32.7,25.7c0-0.7,0.5-1.2,1.2-1.2h13.1
	c0.7,0,1.2,0.5,1.2,1.2c0,0.7-0.5,1.2-1.2,1.2H33.9C33.2,26.9,32.7,26.3,32.7,25.7z M32.7,30.4c0-0.7,0.5-1.2,1.2-1.2h17.8
	c0.7-0.1,1.2,0.4,1.3,1.1c0.1,0.7-0.4,1.2-1.1,1.3c-0.1,0-0.1,0-0.2,0H33.9C33.2,31.6,32.7,31.1,32.7,30.4z M73.1,37.6
	c0,0.7-0.5,1.2-1.2,1.2l0,0H41c-0.7,0-1.2-0.5-1.2-1.2c0-0.7,0.5-1.2,1.2-1.2h30.9C72.5,36.4,73.1,36.9,73.1,37.6
	C73.1,37.6,73.1,37.6,73.1,37.6z M73.1,75.6c0,0.7-0.5,1.2-1.2,1.2c0,0,0,0,0,0H58.8c-0.7,0.1-1.2-0.4-1.3-1.1s0.4-1.2,1.1-1.3
	c0.1,0,0.1,0,0.2,0h13.1C72.5,74.4,73.1,74.9,73.1,75.6C73.1,75.6,73.1,75.6,73.1,75.6z M43.4,70.8c0,0.7-0.5,1.2-1.2,1.2l0,0h-8.3
	c-0.7,0-1.2-0.5-1.2-1.2c0-0.7,0.5-1.2,1.2-1.2h8.3C42.8,69.6,43.4,70.1,43.4,70.8C43.4,70.8,43.4,70.8,43.4,70.8z M54,70.8
	c0,0.7-0.5,1.2-1.2,1.2c0,0,0,0,0,0h-5.9c-0.7,0-1.2-0.5-1.2-1.2c0-0.7,0.5-1.2,1.2-1.2h5.9C53.5,69.6,54,70.2,54,70.8
	C54,70.8,54,70.8,54,70.8z M73,80.3c0,0.7-0.5,1.2-1.2,1.2c0,0,0,0,0,0h-5.9c-0.7,0-1.2-0.5-1.2-1.2c0-0.7,0.5-1.2,1.2-1.2h5.9
	C72.5,79.1,73.1,79.7,73,80.3C73.1,80.3,73.1,80.3,73,80.3L73,80.3z M51.4,48.9c-0.3-0.6-1-0.8-1.6-0.5c-0.2,0.1-0.4,0.3-0.5,0.5
	l-4.6,9.5c-0.2,0.6,0.1,1.3,0.8,1.5c0.5,0.2,1.1,0,1.4-0.5l1.4-2.9h4.2l1.4,2.9c0.3,0.6,1.1,0.7,1.6,0.4c0.5-0.3,0.7-0.9,0.5-1.4
	L51.4,48.9z M49.4,54.2l1-2l1,2H49.4z M61.2,51.8c0.7,0,1.2,0.5,1.2,1.2c0,0.7-0.5,1.2-1.2,1.2l0,0H60v1.2c-0.1,0.7-0.6,1.1-1.3,1.1
	c-0.6-0.1-1-0.5-1.1-1.1l0,0v-1.2h-1.2c-0.7,0-1.2-0.5-1.2-1.2c0-0.7,0.5-1.2,1.2-1.2h1.2v-1.2c0-0.7,0.5-1.2,1.2-1.2
	c0.7,0,1.2,0.5,1.2,1.2l0,0v1.2L61.2,51.8z M73.1,42.3c0-0.7-0.5-1.2-1.2-1.2l0,0H58.6c-3.6-1.6-7.8-1.6-11.4,0H33.9
	c-0.7,0-1.2,0.5-1.2,1.2c0,0.7,0.5,1.2,1.2,1.2h9.6c-0.8,0.7-1.5,1.5-2.2,2.4h-7.4c-0.7,0-1.2,0.5-1.2,1.2c0,0.7,0.5,1.2,1.2,1.2h6
	c-0.4,0.8-0.6,1.6-0.8,2.4h-5.2c-0.7,0.1-1.1,0.6-1.1,1.3c0.1,0.6,0.5,1,1.1,1.1h4.8c0,0.4,0,0.8,0,1.2s0,0.8,0,1.2h-4.8
	c-0.7,0.1-1.1,0.6-1.1,1.3c0.1,0.6,0.5,1,1.1,1.1H39c0.2,0.8,0.5,1.6,0.8,2.4h-6c-0.7,0-1.2,0.5-1.2,1.2c0,0.7,0.5,1.2,1.2,1.2H41
	c0.1,0,0.2,0,0.3,0c0.6,0.9,1.4,1.7,2.2,2.4h-9.6c-0.7,0-1.2,0.5-1.2,1.2c0,0.7,0.5,1.2,1.2,1.2h13.1h0.2c3.7,1.6,7.8,1.6,11.5,0
	h0.2h10.7c0.7,0,1.2-0.5,1.2-1.2c0-0.7-0.5-1.2-1.2-1.2c0,0,0,0,0,0h-7.2c0.8-0.7,1.5-1.5,2.2-2.4h7.4c0.7,0,1.2-0.5,1.2-1.2
	c0-0.7-0.5-1.2-1.2-1.2h-6.1c0.4-0.8,0.6-1.6,0.8-2.4h5.2c0.7,0.1,1.2-0.4,1.3-1.1s-0.4-1.2-1.1-1.3c-0.1,0-0.1,0-0.2,0h-4.8
	c0-0.4,0.1-0.8,0.1-1.2s0-0.8-0.1-1.2h4.8c0.7,0.1,1.2-0.4,1.3-1.1s-0.4-1.2-1.1-1.3c-0.1,0-0.1,0-0.2,0h-5.2
	c-0.2-0.8-0.5-1.6-0.8-2.4h6.1c0.7,0.1,1.2-0.4,1.3-1.1s-0.4-1.2-1.1-1.3c-0.1,0-0.1,0-0.2,0h-7.1c-0.1,0-0.2,0-0.3,0
	c-0.6-0.9-1.4-1.7-2.2-2.4h9.6C72.5,43.5,73.1,43,73.1,42.3L73.1,42.3L73.1,42.3z M64.7,54.2c0,6.6-5.3,11.9-11.9,11.9
	S41,60.8,41,54.2c0-6.6,5.3-11.9,11.9-11.9h0l0,0C59.4,42.3,64.7,47.6,64.7,54.2L64.7,54.2z"/>
</svg>
