<?xml version="1.0" encoding="utf-8"?>
<!-- Generator: Adobe Illustrator 24.0.2, SVG Export Plug-In . SVG Version: 6.00 Build 0)  -->
<svg version="1.1" id="Layer_1" xmlns="http://www.w3.org/2000/svg" xmlns:xlink="http://www.w3.org/1999/xlink" x="0px" y="0px"
	 viewBox="0 0 53 52.8" style="enable-background:new 0 0 53 52.8;" xml:space="preserve">
<style type="text/css">
	.st0{fill:#EC935F;}
	.st1{fill:#FFFFFF;}
</style>
<g id="Group_805" transform="translate(-139.5 -125.5)">
	<g transform="matrix(1, 0, 0, 1, 139.5, 125.5)">
		<path id="Path_204-2" class="st0" d="M26.5-0.2C41.1-0.2,53,11.7,53,26.3S41.1,52.8,26.5,52.8S0,41,0,26.3S11.9-0.2,26.5-0.2z"/>
	</g>
	<g id="Group_303" transform="translate(173.887 154.691)">
		<path id="Path_10" class="st1" d="M0.6-8v5.9C0.6,1.2-3.4,4-8,4s-8.7-2.8-8.7-6.1V-8h-2.8v5.9c0,4.5,4.5,8.3,10.2,8.8v5H-16v2.6
			h15.9v-2.6h-6.7v-5C-1.1,6.2,3.4,2.5,3.4-2.1V-8H0.6z"/>
		<path id="Path_11" class="st1" d="M-2.3-11.1v-3.6c0-2.8-2.3-5-5-5h-1.5c-2.8,0-5,2.3-5,5v0.4h3.8v1.1h-3.8v4.8h3.8v1.1h-3.8v3.7
			c0,2.8,2.3,5,5,5h1.5c2.8,0,5-2.3,5-5v-0.5h-3.8v-1.1h3.8V-10h-3.8v-1.1L-2.3-11.1z"/>
	</g>
</g>
</svg>
