<svg xmlns="http://www.w3.org/2000/svg" viewBox="0 0 40.82 60.43"><defs><style>.cls-1{fill:#ec935f;}</style></defs><g id="Layer_2" data-name="Layer 2"><g id="Layer_1-2" data-name="Layer 1"><g id="Group_1376" data-name="Group 1376"><path id="Path_10" data-name="Path 10" class="cls-1" d="M35.83,20.82V31.38c0,5.84-7.06,10.78-15.42,10.78S5,37.22,5,31.38V20.82H0V31.38c0,8.1,8,14.7,18.13,15.6v8.89H6.21v4.56h28.4V55.86H22.69V47c10.17-.89,18.13-7.5,18.13-15.6V20.82Z"/><path id="Path_11" data-name="Path 11" class="cls-1" d="M30.72,15.33V8.94A9,9,0,0,0,21.78,0H19A9,9,0,0,0,10.1,8.94v.63h6.83v2H10.11v8.57h6.82v2H10.11v6.65a9,9,0,0,0,8.94,8.94h2.73a9,9,0,0,0,8.94-8.94v-.89H23.89v-2h6.83V17.31H23.89v-2Z"/></g></g></g></svg>