<?xml version="1.0" encoding="utf-8"?>
<!-- Generator: Adobe Illustrator 24.0.2, SVG Export Plug-In . SVG Version: 6.00 Build 0)  -->
<svg version="1.1" id="Layer_1" xmlns="http://www.w3.org/2000/svg" xmlns:xlink="http://www.w3.org/1999/xlink" x="0px" y="0px"
	 viewBox="0 0 106 106" style="enable-background:new 0 0 106 106;" xml:space="preserve">
<style type="text/css">
	.st0{fill:#185D92;}
	.st1{fill:#FFFFFF;}
	.st2{font-family:'Stencil';}
	.st3{font-size:50px;}
	.st4{font-size:35px;}
	.st5{fill:none;}
</style>
<g id="sst" transform="translate(-193 -120)">
	<g transform="matrix(1, 0, 0, 1, 193, 120)">
		<circle id="Ellipse_107-2" class="st0" cx="53" cy="53" r="53"/>
	</g>
	<text transform="matrix(1 0 0 1 212 197.71)" class="st1 st2 st3">S</text>
	<text transform="matrix(1 0 0 1 240.0029 197.71)" class="st1 st2 st4">ST</text>
	<g id="ai" transform="translate(249.082 145.614)">
		<path id="Path_325" class="st1" d="M25.6,3.7c-1.3-1.3-3-2-4.8-2c-0.2,0-0.4,0-0.5,0C20-4.1,15.2-8.6,9.4-8.6
			C7-8.6,4.7-7.8,2.8-6.4C1-5-0.3-3.2-1-1.1c-4.6,0.8-8,4.8-8,9.5v0c0,0,0,0,0,0c0,4.3,3.5,7.7,7.8,7.7h1.1v4.4
			c0,0.4,0.3,0.6,0.6,0.6c0,0,0,0,0,0h2.7v3.1c0,0.2,0.1,0.5,0.3,0.6c0.1,0,0.2,0.1,0.3,0.1c0.1,0,0.3,0,0.4-0.1l5.1-3.7h8.8
			c0.4,0,0.6-0.3,0.6-0.6c0,0,0,0,0,0v-4.4h1.1c4.3,0,7.8-3.5,7.8-7.7c0-0.1,0-0.1,0-0.2C27.6,6.6,26.8,4.9,25.6,3.7L25.6,3.7z
			 M17.4,20H9.1c-0.1,0-0.3,0-0.4,0.1l-4.2,3.1v-2.5c0-0.4-0.3-0.6-0.7-0.6H1.2V8.2h16.3L17.4,20z M19.8,14.9h-1.1V7.6
			c0-0.4-0.3-0.6-0.6-0.7H0.5c-0.4,0-0.6,0.3-0.6,0.7v7.3h-1.1c-3.6,0-6.4-2.9-6.5-6.4c0,0,0,0,0,0c0,0,0,0,0-0.1l0,0
			c0-4.2,3.1-7.7,7.3-8.2c0.3,0,0.5-0.2,0.5-0.5C1.6-5.4,6.9-8.4,12-7c4.1,1.2,7,5,7,9.3c0,0,0,0.1,0,0.1c0,0.4,0.3,0.7,0.6,0.7
			c0,0,0.1,0,0.1,0c3-0.6,5.8,1.4,6.4,4.4c0.1,0.3,0.1,0.7,0.1,1c0,0,0,0.1,0,0.1C26.2,12.1,23.4,14.9,19.8,14.9L19.8,14.9z"/>
		<path id="Path_326" class="st1" d="M5.9,17.8c0.2,0,0.4-0.1,0.4-0.2l0.4-1.3h2.2l0.4,1.3c0,0.2,0.2,0.2,0.4,0.2
			c0.3,0,0.8-0.2,0.8-0.5c0,0,0-0.1,0-0.1l-1.9-6.1c-0.1-0.3-0.4-0.4-0.8-0.4c-0.3,0-0.7,0.1-0.8,0.4l-1.9,6.1c0,0,0,0.1,0,0.1
			C5.1,17.6,5.5,17.8,5.9,17.8z M7.8,12.3l0.8,3H6.9L7.8,12.3z"/>
		<path id="Path_327" class="st1" d="M12.7,17.8c0.3,0,0.6-0.1,0.6-0.4v-6.3c0-0.3-0.3-0.4-0.6-0.4s-0.6,0.1-0.6,0.4v6.3
			C12.1,17.6,12.4,17.8,12.7,17.8z"/>
	</g>
	<g id="Group_1325" transform="translate(-1702.131 -3503.365)">
		<g id="Group_1324" transform="translate(1950.925 3649.208)">
			<path id="Path_355" class="st1" d="M20,14.6L20,14.6l-2.4,0v5.1H9.2c-0.1,0-0.3,0-0.4,0.1l-4.2,3.1v-2.5c0-0.4-0.3-0.7-0.7-0.7
				H1.2v-5.1h-2.4c-3.6,0-6.5-2.9-6.5-6.5c0,0,0,0,0,0c0,0,0,0,0-0.1c0-4.2,3.2-7.8,7.4-8.3c0.3,0,0.5-0.2,0.5-0.5
				C1.7-5.8,7-8.8,12.1-7.3c4.2,1.2,7,5,7,9.3v0.1c0,0.4,0.3,0.7,0.6,0.7c0,0,0,0,0,0c0,0,0.1,0,0.1,0c3-0.6,5.9,1.4,6.4,4.4
				c0.1,0.3,0.1,0.7,0.1,1c0,0,0,0.1,0,0.1C26.4,11.8,23.5,14.6,20,14.6z"/>
			<path id="Path_356" class="st5" d="M26.4,7.1c-0.6-3-3.4-5-6.4-4.4c0,0,0,0,0,0c0,0-0.1,0-0.1,0c-0.4,0-0.6-0.3-0.6-0.7
				c0,0,0,0,0,0V2c0-5.3-4.3-9.7-9.7-9.7c-4.3,0-8.1,2.9-9.3,7C0.1-0.4-0.1-0.2-0.4-0.2c-4.2,0.5-7.3,4.1-7.4,8.3c0,0,0,0,0,0.1
				c0,0,0,0,0,0c0,3.6,2.9,6.5,6.5,6.5h1.1L-2.9,5L22,4.7l-3,9.9H20v0c3.5,0,6.4-2.8,6.5-6.3c0,0,0-0.1,0-0.1
				C26.5,7.8,26.4,7.5,26.4,7.1z"/>
			<path id="Path_357" class="st1" d="M27.8,8c0-1.7-0.7-3.4-2-4.6l0,0c-1.3-1.3-3-2-4.8-2c-0.2,0-0.4,0-0.5,0
				C20.1-4.4,15.3-9,9.5-9C7.1-9,4.7-8.2,2.8-6.7C1.1-5.4-0.2-3.5-0.9-1.4C-5.6-0.7-9,3.4-9,8.1v0.1c0,4.3,3.5,7.8,7.8,7.8
				c0,0,0,0,0,0h1.1v4.5c0,0.4,0.3,0.6,0.6,0.6c0,0,0,0,0,0h2.7v3.2c0,0.4,0.3,0.6,0.6,0.6c0.1,0,0.3,0,0.4-0.1L9.4,21h8.8
				c0.4,0,0.6-0.3,0.7-0.6c0,0,0,0,0,0l0,0v-4.5H20c4.3,0,7.8-3.5,7.8-7.8C27.8,8.1,27.8,8,27.8,8z"/>
			<path id="Path_326-2" class="st0" d="M6,17.5c0.2,0,0.4-0.1,0.4-0.2L6.7,16H9l0.4,1.3c0,0.2,0.2,0.2,0.4,0.2
				c0.3,0,0.8-0.2,0.8-0.5c0,0,0-0.1,0-0.1l-1.9-6.1c-0.1-0.3-0.4-0.4-0.8-0.4c-0.3,0-0.7,0.1-0.8,0.4l-1.9,6.1c0,0,0,0.1,0,0.1
				C5.2,17.3,5.6,17.5,6,17.5z M7.9,12.1l0.8,3H7L7.9,12.1z"/>
			<path id="Path_358" class="st0" d="M18.2,6.6H0.6c-0.4,0-0.6,0.3-0.7,0.7v7.4h1.3V7.9h16.3v8h1.3V7.3C18.8,6.9,18.6,6.6,18.2,6.6
				z"/>
			<path id="Path_359" class="st0" d="M0.6,6.6h17.6c0.4,0,0.6,0.3,0.7,0.7v7.4h-1.3V7.9H1.2v8h-1.3V7.3C-0.1,6.9,0.2,6.6,0.6,6.6z"
				/>
		</g>
		<path id="Path_327-2" class="st0" d="M1963.8,3666.7c0.3,0,0.6-0.1,0.6-0.4v-6.3c0-0.3-0.3-0.4-0.6-0.4s-0.6,0.1-0.6,0.4v6.3
			C1963.1,3666.6,1963.4,3666.7,1963.8,3666.7z"/>
	</g>
</g>
</svg>
