<?xml version="1.0" encoding="utf-8"?>
<!-- Generator: Adobe Illustrator 24.0.2, SVG Export Plug-In . SVG Version: 6.00 Build 0)  -->
<svg version="1.1" id="Layer_1" xmlns="http://www.w3.org/2000/svg" xmlns:xlink="http://www.w3.org/1999/xlink" x="0px" y="0px"
	 viewBox="0 0 105.9 106" style="enable-background:new 0 0 105.9 106;" xml:space="preserve">
<style type="text/css">
	.st0{fill:#2FDA61;}
	.st1{fill:#FFFFFF;}
</style>
<g id="template" transform="translate(-184 -139)">
	<g transform="matrix(1, 0, 0, 1, 184, 139)">
		<circle id="Ellipse_146-2" class="st0" cx="53" cy="53" r="53"/>
	</g>
	<g id="Group_484" transform="translate(213 168)">
		<g id="Group_467" transform="translate(15.994 15.995)">
			<path id="Path_79" class="st1" d="M-5.8-2.6C-7.6-2.6-9-4-9-5.8S-7.6-9-5.8-9C-4-9-2.6-7.6-2.6-5.8S-4-2.6-5.8-2.6
				C-5.8-2.6-5.8-2.6-5.8-2.6z"/>
		</g>
		<g id="Group_469" transform="translate(22.392 22.392)">
			<path id="Path_80" class="st1" d="M-5.8-2.6C-7.6-2.6-9-4-9-5.8S-7.6-9-5.8-9C-4-9-2.6-7.6-2.6-5.8S-4-2.6-5.8-2.6
				C-5.8-2.6-5.8-2.6-5.8-2.6z"/>
		</g>
		<g id="Group_472" transform="translate(0 0)">
			<path id="Path_82" class="st1" d="M45.8-9H16.6V5.5L4.4-6.7C1.4-9.9-3.5-10-6.7-7S-10,0.9-7,4.1c0.1,0.1,0.2,0.2,0.3,0.3L14,25.1
				H-9v27.7h25.6v4.3h40.5V2.3L45.8-9z M50.7,3.8v2.1H23v-8.5h21.3v6.4H50.7z M46.4,1.7v-7l7,7L46.4,1.7z M31,23.9l2.6,8.7
				c0.1,0.4-0.1,0.9-0.5,1c-0.1,0-0.3,0-0.5,0L23.9,31L31,23.9z M21.9,30L2.1,10.2l8.1-8.1L30,21.9L21.9,30z M0.6,8.7L-1.1,7L7-1.1
				l1.7,1.7L0.6,8.7z M-6.9-1.1c0-3.2,2.6-5.7,5.7-5.7c1.5,0,3,0.6,4,1.7l2.6,2.6l-8.1,8.1l-2.6-2.6C-6.3,1.8-6.9,0.4-6.9-1.1z
				 M16.1,27.3l0.4,0.4v14.5H-6.9V27.3L16.1,27.3z M16.6,44.3v2.1H-6.9v-2.1L16.6,44.3z M-6.9,50.7v-2.1h23.5v2.1H-6.9z M18.7,55
				V29.8l2.4,2.4l0.2,0.2L32,35.7c1.6,0.5,3.2-0.4,3.6-2c0.1-0.3,0.1-0.5,0.1-0.8c0-0.3,0-0.6-0.1-0.8l-3.2-10.7L18.7,7.6V-6.9h25.6
				v2.1H20.9V8.1h32V3.8H55V55L18.7,55z"/>
			<path id="Path_83" class="st1" d="M5.9,29.4H-4.7V40H5.9V29.4z M3.8,37.9h-6.4v-6.4h6.4V37.9z"/>
			<path id="Path_84" class="st1" d="M8.1,29.4h2.1V40H8.1V29.4z"/>
			<path id="Path_85" class="st1" d="M12.3,29.4h2.1V40h-2.1V29.4z"/>
			<path id="Path_86" class="st1" d="M37.9,52.8h14.9V37.9H37.9V52.8z M40,40h10.7v10.7H40V40z"/>
			<path id="Path_87" class="st1" d="M29.4,50.7h2.1v2.1h-2.1V50.7z"/>
			<path id="Path_88" class="st1" d="M33.7,50.7h2.1v2.1h-2.1V50.7z"/>
			<path id="Path_89" class="st1" d="M20.9,50.7h6.4v2.1h-6.4V50.7z"/>
			<path id="Path_90" class="st1" d="M20.9,46.4h14.9v2.1H20.9V46.4z"/>
			<path id="Path_91" class="st1" d="M20.9,42.2h14.9v2.1H20.9V42.2z"/>
			<path id="Path_92" class="st1" d="M20.9,37.9h14.9V40H20.9V37.9z"/>
			<path id="Path_93" class="st1" d="M50.7,10.2h2.1v2.1h-2.1V10.2z"/>
			<path id="Path_94" class="st1" d="M31.5,10.2h17.1v2.1H31.5V10.2z"/>
			<path id="Path_95" class="st1" d="M31.5,14.5h21.3v2.1H31.5V14.5z"/>
			<path id="Path_96" class="st1" d="M35.8,18.7h17.1v2.1H35.8V18.7z"/>
			<path id="Path_97" class="st1" d="M35.8,23h17.1v2.1H35.8V23z"/>
			<path id="Path_98" class="st1" d="M37.9,27.3h14.9v2.1H37.9V27.3z"/>
			<path id="Path_99" class="st1" d="M37.9,31.5h14.9v2.1H37.9V31.5z"/>
		</g>
	</g>
</g>
</svg>
