<svg xmlns="http://www.w3.org/2000/svg" viewBox="0 0 106 106"><defs><style>.cls-1{fill:#11e6e6;}.cls-2{fill:#fff;}</style></defs><g id="Layer_2" data-name="Layer 2"><g id="Layer_1-2" data-name="Layer 1"><g id="Group_1478" data-name="Group 1478"><circle id="Ellipse_146-2" data-name="Ellipse 146-2" class="cls-1" cx="53" cy="53" r="53"/><path id="Icon_awesome-video" data-name="Icon awesome-video" class="cls-2" d="M58.13,32h-31A5.14,5.14,0,0,0,22,37.14v31a5.14,5.14,0,0,0,5.14,5.14h31a5.14,5.14,0,0,0,5.14-5.14h0v-31A5.14,5.14,0,0,0,58.14,32Zm20.36,4L66.71,44.18V61.1l11.78,8.11a3.45,3.45,0,0,0,4.8-.85,3.51,3.51,0,0,0,.62-1.92V38.82a3.45,3.45,0,0,0-3.51-3.39A3.53,3.53,0,0,0,78.49,36.05Z"/></g></g></g></svg>