<?xml version="1.0" encoding="utf-8"?>
<!-- Generator: Adobe Illustrator 24.0.2, SVG Export Plug-In . SVG Version: 6.00 Build 0)  -->
<svg version="1.1" id="Layer_1" xmlns="http://www.w3.org/2000/svg" xmlns:xlink="http://www.w3.org/1999/xlink" x="0px" y="0px"
	 viewBox="0 0 78.7 78.7" style="enable-background:new 0 0 78.7 78.7;" xml:space="preserve">
<style type="text/css">
	.st0{fill:#F59666;}
	.st1{fill:#FFFFFF;}
</style>
<g id="video" transform="translate(-5240 -4081)">
	<g id="Group_1159">
		<circle id="Ellipse_140" class="st0" cx="5279.3" cy="4120.3" r="39.3"/>
		<circle id="Ellipse_143" class="st1" cx="5279.3" cy="4120.3" r="36.3"/>
		<circle id="Ellipse_144" class="st0" cx="5279.3" cy="4120.3" r="33.3"/>
	</g>
	<g id="Icon_ionic-ios-videocam" transform="translate(5258 4108)">
		<path id="Path_314" class="st1" d="M40.4,2.5c-0.3,0-0.6,0.1-0.9,0.3L31.1,8c-0.2,0.2-0.4,0.4-0.4,0.7V16c0,0.3,0.1,0.5,0.4,0.7
			l8.3,5.3c0.3,0.2,0.6,0.3,0.9,0.3h2c0.5,0,0.8-0.4,0.8-0.8c0,0,0,0,0,0V3.3c0-0.5-0.4-0.8-0.8-0.8H40.4z"/>
		<path id="Path_315" class="st1" d="M23.3,24.7H5c-2.7,0-5-2.2-5-5V5C0,2.2,2.2,0,5,0h18.3c2.7,0,4.9,2.2,5,5v14.8
			C28.2,22.5,26,24.7,23.3,24.7z"/>
	</g>
</g>
</svg>
