<svg xmlns="http://www.w3.org/2000/svg" viewBox="0 0 47.59 60.14"><defs><style>.cls-1{fill:#f59666;}</style></defs><g id="Layer_2" data-name="Layer 2"><g id="Layer_1-2" data-name="Layer 1"><g id="vocabulary"><g id="Group_452" data-name="Group 452"><path id="Path_70" data-name="Path 70" class="cls-1" d="M44,0H3.63A3.64,3.64,0,0,0,0,3.63V56.51a3.64,3.64,0,0,0,3.63,3.63H44a3.64,3.64,0,0,0,3.63-3.63V3.63A3.64,3.64,0,0,0,44,0Zm.1,56.51a.09.09,0,0,1-.1.1H3.63a.1.1,0,0,1-.1-.1V38.89H44.06V56.51Zm0-21.15H3.53V3.63a.11.11,0,0,1,.1-.1H44a.1.1,0,0,1,.1.1Z"/></g><g id="Group_454" data-name="Group 454"><path id="Path_71" data-name="Path 71" class="cls-1" d="M19.23,43.07H10.08a1.77,1.77,0,1,0,0,3.53h9.15a1.77,1.77,0,0,0,0-3.53Z"/></g><g id="Group_456" data-name="Group 456"><path id="Path_72" data-name="Path 72" class="cls-1" d="M26.32,48.68H10.08a1.77,1.77,0,1,0,0,3.53H26.32a1.77,1.77,0,0,0,0-3.53Z"/></g><g id="Group_458" data-name="Group 458"><path id="Path_73" data-name="Path 73" class="cls-1" d="M37.39,48.68H33a1.77,1.77,0,0,0,0,3.53h4.39a1.77,1.77,0,1,0,0-3.53Z"/></g><g id="Group_460" data-name="Group 460"><path id="Path_74" data-name="Path 74" class="cls-1" d="M25.49,28.15,20.06,10.44A1.92,1.92,0,0,0,19,9.32a4.82,4.82,0,0,0-3.8,0,1.86,1.86,0,0,0-1.06,1.12L8.74,28.15a1.8,1.8,0,0,0-.06.32,1.57,1.57,0,0,0,.94,1.31,3.77,3.77,0,0,0,2,.55c.84,0,1.33-.28,1.48-.84l1-3.63h6.13l1,3.63c.16.56.65.84,1.48.84a3.74,3.74,0,0,0,2-.55,1.56,1.56,0,0,0,.95-1.31A1.8,1.8,0,0,0,25.49,28.15ZM15,22.38l2.12-7.79,2.11,7.79Z"/></g><g id="Group_462" data-name="Group 462"><path id="Path_75" data-name="Path 75" class="cls-1" d="M36.88,18a6.81,6.81,0,0,0-5-1.63,8.41,8.41,0,0,0-3.35.69c-1.08.45-1.61,1-1.61,1.64a3,3,0,0,0,.4,1.55,1.25,1.25,0,0,0,1.1.68,3.64,3.64,0,0,0,1.1-.54,4.4,4.4,0,0,1,2.3-.53,1.93,1.93,0,0,1,1.65.67A2.51,2.51,0,0,1,34,22.07v.3H33a10.67,10.67,0,0,0-5,.95,3.39,3.39,0,0,0-1.75,3.27,3.93,3.93,0,0,0,1.06,3,3.65,3.65,0,0,0,2.65,1,5.72,5.72,0,0,0,4.42-2.46v.68a1.26,1.26,0,0,0,.58,1.06,2.25,2.25,0,0,0,1.42.43,2.89,2.89,0,0,0,1.58-.4,1.2,1.2,0,0,0,.63-1V22A5.52,5.52,0,0,0,36.88,18Zm-3.59,8.42a2.05,2.05,0,0,1-1.45.75,1,1,0,0,1-1.13-.84,1.41,1.41,0,0,1,0-.29,1.07,1.07,0,0,1,.49-.95,2.55,2.55,0,0,1,1.12-.42,13.93,13.93,0,0,1,1.58-.08H34v.11h0a2.4,2.4,0,0,1-.72,1.72Z"/></g></g></g></g></svg>