<svg xmlns="http://www.w3.org/2000/svg" viewBox="0 0 83.73 83.71"><defs><style>.cls-1{fill:#25d366;}</style></defs><g id="Layer_2" data-name="Layer 2"><g id="Layer_1-2" data-name="Layer 1"><path id="Icon_awesome-whatsapp" data-name="Icon awesome-whatsapp" class="cls-1" d="M71.18,12.15A41.5,41.5,0,0,0,5.88,62.21L0,83.71l22-5.78a41.37,41.37,0,0,0,19.83,5h0C64.7,83,83.73,64.37,83.73,41.49A41.65,41.65,0,0,0,71.19,12.15ZM41.84,76a34.42,34.42,0,0,1-17.56-4.8L23,70.43,10,73.86l3.47-12.73-.82-1.3A34.55,34.55,0,1,1,76.71,41.49C76.71,60.51,60.85,76,41.84,76ZM60.76,50.16c-1-.52-6.13-3-7.09-3.36s-1.64-.53-2.33.52-2.68,3.36-3.29,4.07-1.22.79-2.25.27c-6.09-3-10.09-5.44-14.11-12.34-1.06-1.83,1.07-1.7,3.05-5.66a1.93,1.93,0,0,0-.09-1.81c-.26-.53-2.34-5.63-3.2-7.7s-1.7-1.74-2.34-1.78-1.29,0-2,0a3.83,3.83,0,0,0-2.77,1.28,11.67,11.67,0,0,0-3.62,8.66c0,5.1,3.72,10,4.22,10.72s7.31,11.16,17.72,15.67c6.58,2.84,9.16,3.08,12.45,2.6,2-.3,6.13-2.5,7-4.94s.86-4.5.6-4.93S61.78,50.67,60.76,50.16Z"/></g></g></svg>