<?xml version="1.0" encoding="utf-8"?>
<!-- Generator: Adobe Illustrator 24.0.2, SVG Export Plug-In . SVG Version: 6.00 Build 0)  -->
<svg version="1.1" id="Layer_1" xmlns="http://www.w3.org/2000/svg" xmlns:xlink="http://www.w3.org/1999/xlink" x="0px" y="0px"
	 viewBox="0 0 86 86" style="enable-background:new 0 0 86 86;" xml:space="preserve">
<style type="text/css">
	.st0{fill:#67B8FC;}
	.st1{fill:#FFFFFF;}
</style>
<g>
	<circle id="Ellipse_124-2" class="st0" cx="43" cy="43" r="43"/>
	<g id="contract" transform="translate(6769.982 -93)">
		<g id="Group_404" transform="translate(0.018)">
			<path id="Path_39" class="st1" d="M-6699.4,126.3c-1.7-1.7-4.4-1.7-6.1,0l-4.3,4.3v-11.4c0-1.1-0.5-2.2-1.3-3.1l-4.1-4.1
				c-0.8-0.8-1.9-1.3-3.1-1.3h-24.7c-2.4,0-4.3,1.9-4.3,4.3v40.5c0,2.4,1.9,4.3,4.3,4.3h28.8c2.4,0,4.3-1.9,4.3-4.3v-12.8l10.4-10.5
				C-6697.7,130.7-6697.7,128-6699.4,126.3z M-6718.5,113.7c0.5-0.1,0.9,0.1,1.3,0.4l4.1,4.1c0.3,0.3,0.5,0.8,0.4,1.3h-5.8V113.7z
				 M-6712.7,155.7c0,0.8-0.6,1.4-1.4,1.4h-28.8c-0.8,0-1.4-0.6-1.4-1.4v-40.5c0-0.8,0.6-1.4,1.4-1.4h21.6v7.2
				c0,0.8,0.6,1.4,1.4,1.4l0,0h7.2v11.2l-4.3,4.3l-2,2c-0.2,0.2-0.3,0.4-0.3,0.6l-2,6.1c-0.3,0.8,0.2,1.6,0.9,1.8
				c0.3,0.1,0.6,0.1,0.9,0l6.1-2c0.2-0.1,0.4-0.2,0.6-0.3l0.2-0.2L-6712.7,155.7L-6712.7,155.7z M-6715.9,140.9l2,2l-0.8,0.8l-3.1,1
				l1-3.1L-6715.9,140.9z M-6711.9,140.9l-2-2l6.9-6.9l2,2L-6711.9,140.9z M-6701.4,130.4l-1.5,1.5l-2-2l1.5-1.5
				c0.6-0.6,1.5-0.6,2,0S-6700.8,129.8-6701.4,130.4L-6701.4,130.4z"/>
		</g>
		<g id="Group_406" transform="translate(3.57 8.88)">
			<path id="Path_40" class="st1" d="M-6723.5,116.4h-20.2c-0.8,0-1.4,0.6-1.4,1.4c0,0.8,0.6,1.4,1.4,1.4h20.2
				c0.8,0,1.4-0.6,1.4-1.4C-6722,117-6722.7,116.4-6723.5,116.4z"/>
		</g>
		<g id="Group_408" transform="translate(3.57 12.432)">
			<path id="Path_41" class="st1" d="M-6729.2,118.6h-14.4c-0.8,0-1.4,0.6-1.4,1.4c0,0.8,0.6,1.4,1.4,1.4h14.4
				c0.8,0,1.4-0.6,1.4-1.4C-6727.8,119.2-6728.4,118.6-6729.2,118.6z"/>
		</g>
		<g id="Group_410" transform="translate(3.57 15.984)">
			<path id="Path_42" class="st1" d="M-6729.2,120.8h-14.4c-0.8,0-1.4,0.6-1.4,1.4c0,0.8,0.6,1.4,1.4,1.4h14.4
				c0.8,0,1.4-0.6,1.4-1.4C-6727.8,121.4-6728.4,120.8-6729.2,120.8z"/>
		</g>
		<g id="Group_412" transform="translate(3.57 19.536)">
			<path id="Path_43" class="st1" d="M-6729.2,123h-14.4c-0.8,0-1.4,0.6-1.4,1.4s0.6,1.4,1.4,1.4h14.4c0.8,0,1.4-0.6,1.4-1.4
				S-6728.4,123-6729.2,123z"/>
		</g>
		<g id="Group_414" transform="translate(10.674 24.983)">
			<path id="Path_44" class="st1" d="M-6730.6,126.4h-8.6c-0.8,0-1.4,0.6-1.4,1.4c0,0.8,0.6,1.4,1.4,1.4l0,0h8.6
				c0.8,0,1.4-0.6,1.4-1.4C-6729.1,127-6729.8,126.4-6730.6,126.4z"/>
		</g>
	</g>
</g>
</svg>
