<?xml version="1.0" encoding="utf-8"?>
<!-- Generator: Adobe Illustrator 24.0.2, SVG Export Plug-In . SVG Version: 6.00 Build 0)  -->
<svg version="1.1" id="Layer_1" xmlns="http://www.w3.org/2000/svg" xmlns:xlink="http://www.w3.org/1999/xlink" x="0px" y="0px"
	 viewBox="0 0 52.9 53" style="enable-background:new 0 0 52.9 53;" xml:space="preserve">
<style type="text/css">
	.st0{fill:#67B8FC;}
	.st1{fill:#FFFFFF;}
</style>
<g id="Group_681" transform="translate(-8988.5 -519.5)">
	<g transform="matrix(1, 0, 0, 1, 8988.5, 519.5)">
		<circle id="Ellipse_72-2" class="st0" cx="26.5" cy="26.5" r="26.5"/>
	</g>
	<g id="contract" transform="translate(9018.982 549.864)">
		<g id="Group_404" transform="translate(0.018)">
			<path id="Path_39" class="st1" d="M10-10c-1-1-2.7-1-3.8,0L3.6-7.3v-7c0-0.7-0.3-1.4-0.8-1.9l-2.5-2.5c-0.5-0.5-1.2-0.8-1.9-0.8
				h-15.2c-1.5,0-2.7,1.2-2.7,2.7v25c0,1.5,1.2,2.7,2.7,2.7H0.9c1.5,0,2.7-1.2,2.7-2.7V0.2L10-6.2C11.1-7.2,11.1-8.9,10-10z
				 M-1.7-17.7c0.3,0,0.6,0.1,0.8,0.3L1.6-15c0.2,0.2,0.3,0.5,0.3,0.8h-3.6V-17.7z M1.8,8.1C1.8,8.6,1.4,9,0.9,9h-17.8
				c-0.5,0-0.9-0.4-0.9-0.9v-25c0-0.5,0.4-0.9,0.9-0.9h13.3v4.4c0,0.5,0.4,0.9,0.9,0.9l0,0h4.4v6.9l-2.6,2.6l-1.3,1.3
				c-0.1,0.1-0.2,0.2-0.2,0.3l-1.3,3.8c-0.2,0.5,0.1,1,0.6,1.1c0.2,0.1,0.4,0.1,0.6,0l3.8-1.3c0.1,0,0.2-0.1,0.3-0.2L1.8,2L1.8,8.1
				L1.8,8.1z M-0.2-1l1.3,1.3L0.6,0.7l-1.9,0.6l0.6-1.9L-0.2-1z M2.3-1L1.1-2.3l4.3-4.3l1.3,1.3L2.3-1z M8.8-7.4L7.9-6.5L6.6-7.8
				l0.9-0.9C7.9-9,8.4-9,8.8-8.7S9.1-7.8,8.8-7.4L8.8-7.4z"/>
		</g>
		<g id="Group_406" transform="translate(3.57 8.88)">
			<path id="Path_40" class="st1" d="M-6.2-19.5h-12.4c-0.5,0-0.9,0.4-0.9,0.9s0.4,0.9,0.9,0.9h12.4c0.5,0,0.9-0.4,0.9-0.9
				S-5.7-19.5-6.2-19.5z"/>
		</g>
		<g id="Group_408" transform="translate(3.57 12.432)">
			<path id="Path_41" class="st1" d="M-9.7-19.5h-8.9c-0.5,0-0.9,0.4-0.9,0.9s0.4,0.9,0.9,0.9h8.9c0.5,0,0.9-0.4,0.9-0.9
				S-9.2-19.5-9.7-19.5z"/>
		</g>
		<g id="Group_410" transform="translate(3.57 15.984)">
			<path id="Path_42" class="st1" d="M-9.7-19.5h-8.9c-0.5,0-0.9,0.4-0.9,0.9s0.4,0.9,0.9,0.9h8.9c0.5,0,0.9-0.4,0.9-0.9
				S-9.2-19.5-9.7-19.5z"/>
		</g>
		<g id="Group_412" transform="translate(3.57 19.536)">
			<path id="Path_43" class="st1" d="M-9.7-19.5h-8.9c-0.5,0-0.9,0.4-0.9,0.9s0.4,0.9,0.9,0.9h8.9c0.5,0,0.9-0.4,0.9-0.9
				S-9.2-19.5-9.7-19.5z"/>
		</g>
		<g id="Group_414" transform="translate(10.674 24.983)">
			<path id="Path_44" class="st1" d="M-13.3-19.5h-5.3c-0.5,0-0.9,0.4-0.9,0.9s0.4,0.9,0.9,0.9l0,0h5.3c0.5,0,0.9-0.4,0.9-0.9
				S-12.8-19.5-13.3-19.5z"/>
		</g>
	</g>
</g>
</svg>
